<?xml version="1.0" encoding="UTF-8" standalone="no"?>
<!-- Created with Inkscape (http://www.inkscape.org/) -->

<svg
   xmlns:dc="http://purl.org/dc/elements/1.1/"
   xmlns:cc="http://creativecommons.org/ns#"
   xmlns:rdf="http://www.w3.org/1999/02/22-rdf-syntax-ns#"
   xmlns:svg="http://www.w3.org/2000/svg"
   xmlns="http://www.w3.org/2000/svg"
   xmlns:sodipodi="http://sodipodi.sourceforge.net/DTD/sodipodi-0.dtd"
   xmlns:inkscape="http://www.inkscape.org/namespaces/inkscape"
   width="10mm"
   height="10mm"
   viewBox="0 0 10 10"
   version="1.1"
   id="svg1418"
   inkscape:export-filename="C:\xampp\htdocs\salesmart\resources\images\salesmart\account-icon.png"
   inkscape:export-xdpi="508"
   inkscape:export-ydpi="508"
   inkscape:version="0.92.3 (2405546, 2018-03-11)"
   sodipodi:docname="account-icon.svg">
  <defs
     id="defs1412" />
  <sodipodi:namedview
     id="base"
     pagecolor="#ffffff"
     bordercolor="#666666"
     borderopacity="1.0"
     inkscape:pageopacity="0.0"
     inkscape:pageshadow="2"
     inkscape:zoom="14.472708"
     inkscape:cx="18.897638"
     inkscape:cy="17.861204"
     inkscape:document-units="mm"
     inkscape:current-layer="layer1"
     showgrid="false"
     inkscape:window-width="1366"
     inkscape:window-height="716"
     inkscape:window-x="-8"
     inkscape:window-y="-8"
     inkscape:window-maximized="1" />
  <metadata
     id="metadata1415">
    <rdf:RDF>
      <cc:Work
         rdf:about="">
        <dc:format>image/svg+xml</dc:format>
        <dc:type
           rdf:resource="http://purl.org/dc/dcmitype/StillImage" />
        <dc:title></dc:title>
      </cc:Work>
    </rdf:RDF>
  </metadata>
  <g
     inkscape:label="Layer 1"
     inkscape:groupmode="layer"
     id="layer1"
     transform="translate(151.43855,-17.705787)">
    <path
       style="color:#000000;font-style:normal;font-variant:normal;font-weight:normal;font-stretch:normal;font-size:medium;line-height:normal;font-family:sans-serif;font-variant-ligatures:normal;font-variant-position:normal;font-variant-caps:normal;font-variant-numeric:normal;font-variant-alternates:normal;font-feature-settings:normal;text-indent:0;text-align:start;text-decoration:none;text-decoration-line:none;text-decoration-style:solid;text-decoration-color:#000000;letter-spacing:normal;word-spacing:normal;text-transform:none;writing-mode:lr-tb;direction:ltr;text-orientation:mixed;dominant-baseline:auto;baseline-shift:baseline;text-anchor:start;white-space:normal;shape-padding:0;clip-rule:nonzero;display:inline;overflow:visible;visibility:visible;opacity:1;isolation:auto;mix-blend-mode:normal;color-interpolation:sRGB;color-interpolation-filters:linearRGB;solid-color:#000000;solid-opacity:1;vector-effect:none;fill:#ffffff;fill-opacity:1;fill-rule:nonzero;stroke:#1d69b5;stroke-width:0.13229167;stroke-linecap:butt;stroke-linejoin:miter;stroke-miterlimit:4;stroke-dasharray:none;stroke-dashoffset:0;stroke-opacity:1;color-rendering:auto;image-rendering:auto;shape-rendering:auto;text-rendering:auto;enable-background:accumulate"
       d="m -145.68164,18.210938 c -0.7927,-0.122059 -1.60263,-0.03887 -2.33594,0.242187 -0.99221,0.380302 -1.81398,1.083358 -2.34375,2.005859 -0.0828,0.144171 -0.20784,0.403373 -0.26953,0.556641 -0.40289,1.001935 -0.43812,2.129068 -0.0977,3.152344 0.25242,0.758572 0.7029,1.441222 1.30079,1.972656 0.78082,0.694052 1.78672,1.104714 2.82031,1.150391 6.4e-4,2.8e-5 0.001,-2.8e-5 0.002,0 0.20098,0.0088 0.20687,0.0083 0.40039,0 0.44398,-0.0191 0.8474,-0.0926 1.25586,-0.228516 1.24099,-0.412915 2.24956,-1.342879 2.76172,-2.544922 0.1995,-0.46826 0.31425,-0.938146 0.35547,-1.46289 0.0116,-0.146202 0.0116,-0.512001 0,-0.658204 -0.0648,-0.825477 -0.32423,-1.569918 -0.78125,-2.242187 -0.70865,-1.042426 -1.82955,-1.752607 -3.06836,-1.943359 z m -0.006,0.03125 c 1.22987,0.189375 2.34521,0.894657 3.04883,1.929687 0.45401,0.667843 0.71095,1.406226 0.77539,2.226563 0.0112,0.141931 0.0112,0.512366 0,0.654296 -0.041,0.521642 -0.15532,0.987929 -0.35352,1.453125 -0.50854,1.19357 -1.50992,2.117331 -2.74218,2.527344 -0.40575,0.135007 -0.80675,0.207577 -1.24805,0.226563 -0.19255,0.0083 -0.19843,0.0086 -0.39649,0 -9.7e-4,-4.3e-5 -9.6e-4,4.3e-5 -0.002,0 -1.02674,-0.04493 -2.02499,-0.453004 -2.80078,-1.142578 -0.59366,-0.527682 -1.04234,-1.205779 -1.29297,-1.958985 -0.33804,-1.015984 -0.30237,-2.136034 0.0977,-3.130859 0.0607,-0.150858 0.18607,-0.410809 0.26758,-0.552735 0.52615,-0.916203 1.34271,-1.612538 2.32812,-1.990234 0.72795,-0.27901 1.53109,-0.363411 2.31836,-0.242187 z m -0.56055,0.480468 c -0.76971,-0.04327 -1.66348,0.212172 -2.35937,0.675782 -0.96815,0.644993 -1.56708,1.643049 -1.75781,2.923828 -0.0429,0.288051 -0.0504,0.427855 -0.0352,0.636718 0.0371,0.509212 0.1718,0.993885 0.41016,1.478516 0.19364,0.393727 0.43593,0.747585 0.73437,1.072266 0.0284,0.03094 0.0442,0.04868 0.0566,0.05859 0.003,0.0025 0.007,0.0042 0.01,0.0059 0.002,8.5e-4 0.002,0.0013 0.004,0.002 0.002,6.04e-4 0.007,0.0019 0.008,0.002 6.5e-4,7e-6 0.007,-0.0017 0.008,-0.002 5.4e-4,-2.12e-4 0.005,-0.0035 0.006,-0.0039 4.4e-4,-4.15e-4 0.003,-0.0024 0.004,-0.0039 9.6e-4,-0.0016 10e-4,-0.0045 0.002,-0.0059 0.003,-0.007 0.023,-0.05454 0.043,-0.105469 0.1971,-0.506379 0.56472,-1.009011 0.98242,-1.341797 0.39488,-0.314617 0.86231,-0.506684 1.39258,-0.572265 0.1565,-0.01936 0.58197,-0.0193 0.73242,0 0.63349,0.08125 1.14819,0.327507 1.58203,0.759765 0.1564,0.155831 0.27371,0.298338 0.39258,0.476563 0.14302,0.214435 0.28494,0.498811 0.36328,0.724609 l 0.0312,0.0918 0.0391,-0.02734 c 0.0109,-0.0078 0.0279,-0.02435 0.0527,-0.04883 0.0249,-0.02448 0.056,-0.05687 0.0879,-0.08984 0.0637,-0.06594 0.13058,-0.137998 0.16406,-0.177735 0.59385,-0.704934 0.92187,-1.583798 0.92187,-2.472656 0,-0.700169 -0.21417,-1.491523 -0.57031,-2.111328 -0.16629,-0.289387 -0.34009,-0.520124 -0.57226,-0.757813 -0.31399,-0.321437 -0.64498,-0.558942 -1.0625,-0.761718 -0.52099,-0.253023 -1.06597,-0.39183 -1.66993,-0.425782 z m -0.002,0.03125 c 0.60015,0.03374 1.14097,0.172625 1.6582,0.423828 0.4147,0.201402 0.7411,0.434874 1.05274,0.753907 0.23054,0.236017 0.40322,0.464573 0.56836,0.751953 0.35302,0.614378 0.5664,1.402062 0.5664,2.095703 0,0.880994 -0.32491,1.753779 -0.91406,2.453125 -0.0321,0.03812 -0.1006,0.11013 -0.16406,0.175781 -0.0317,0.03283 -0.0614,0.0637 -0.0859,0.08789 -0.0246,0.02419 -0.046,0.04346 -0.0508,0.04688 l -0.002,0.002 -0.0176,-0.05273 c -0.0796,-0.229296 -0.22239,-0.513376 -0.36719,-0.730469 -0.11989,-0.179769 -0.23884,-0.323404 -0.39648,-0.480469 -0.43848,-0.436881 -0.9621,-0.687518 -1.60157,-0.769531 -0.15777,-0.02024 -0.5769,-0.0202 -0.74023,0 -0.53556,0.06624 -1.00865,0.25979 -1.4082,0.578125 -0.42279,0.33684 -0.79281,0.843228 -0.99219,1.355468 l -0.006,0.01367 c -0.0147,0.03758 -0.0282,0.0672 -0.0332,0.08008 -0.009,-0.0077 -0.0226,-0.02227 -0.0488,-0.05078 -0.29644,-0.322511 -0.53814,-0.673398 -0.73047,-1.064453 -0.23673,-0.481315 -0.3694,-0.963667 -0.40625,-1.46875 -0.0151,-0.207061 -0.008,-0.341765 0.0352,-0.628906 0.18965,-1.27352 0.78357,-2.26045 1.74414,-2.900391 0.68989,-0.459614 1.57861,-0.714666 2.33984,-0.671875 z m -0.14062,0.882813 c -0.1652,0 -0.20921,0.003 -0.28907,0.01758 -0.81563,0.148569 -1.39908,0.844555 -1.39843,1.667969 5.5e-4,0.861877 0.65261,1.584007 1.51562,1.677734 0.0974,0.01058 0.32236,0.004 0.42383,-0.01172 0.72265,-0.111766 1.28247,-0.662809 1.41211,-1.388672 0.0146,-0.08518 0.0177,-0.127594 0.0176,-0.283203 -2e-4,-0.193501 -0.006,-0.261172 -0.0449,-0.414062 -0.0699,-0.275921 -0.21726,-0.539204 -0.41601,-0.748047 -0.24824,-0.260865 -0.57107,-0.434321 -0.93164,-0.5 -0.0799,-0.01449 -0.12386,-0.01758 -0.28906,-0.01758 z m 0,0.0332 c 0.16487,0 0.20462,0.0014 0.2832,0.01563 0.3541,0.0645 0.67247,0.236262 0.91601,0.492187 0.19489,0.204781 0.33772,0.462081 0.40625,0.732422 0.0385,0.151726 0.0447,0.213537 0.0449,0.40625 8e-5,0.155183 -0.003,0.193076 -0.0176,0.277344 -0.12733,0.712928 -0.67532,1.253558 -1.38477,1.363281 -0.0953,0.01476 -0.32541,0.0196 -0.41601,0.0098 h -0.002 c -0.84629,-0.09285 -1.48578,-0.799392 -1.48633,-1.644531 -6.3e-4,-0.808291 0.57208,-1.490821 1.37305,-1.636719 0.0786,-0.01431 0.11832,-0.01563 0.28321,-0.01563 z"
       id="path2053"
       inkscape:connector-curvature="0" />
    <path
       style="opacity:1;fill:#ffffff;fill-opacity:1;stroke:none;stroke-width:0.03454778;stroke-miterlimit:4;stroke-dasharray:none;stroke-dashoffset:0;stroke-opacity:1"
       d="M 17.552255,35.783304 C 10.904151,35.136353 5.2653811,30.69954 3.1085042,24.418374 2.4993583,22.644444 2.2338711,20.998037 2.2338711,18.994372 c 0,-2.560878 0.4674888,-4.769864 1.477186,-6.980021 C 4.1791643,10.989696 4.3766445,10.637232 5.0652506,9.5973744 7.7430031,5.5537248 12.135766,2.8406103 16.974718,2.2416966 c 1.112434,-0.1376852 3.106522,-0.1376852 4.218956,0 3.747571,0.4638343 7.210357,2.1819497 9.894636,4.909379 1.32657,1.3478949 2.304868,2.7273429 3.131464,4.4155224 1.183812,2.417728 1.689193,4.640352 1.689193,7.428936 0,2.744116 -0.535984,5.073028 -1.709186,7.426611 -2.235992,4.485666 -6.208031,7.697117 -11.033545,8.920783 -1.567974,0.397611 -4.051505,0.592426 -5.613981,0.440376 z m 13.037891,-6.638687 c 1.472004,-1.616716 2.545897,-3.448643 3.211494,-5.478411 1.015418,-3.096557 0.970837,-6.247225 -0.136007,-9.612168 -0.53047,-1.612694 -1.209,-2.962577 -2.18808,-4.3530203 C 30.906668,8.8902731 29.153747,7.1373517 28.343002,6.5664662 24.555792,3.8997034 19.848154,2.9423444 15.60327,3.9756764 13.28696,4.5395355 10.984931,5.6845244 9.2726252,7.1244274 6.2292945,9.6836091 4.4667515,13.000248 3.7776205,17.464572 c -0.5590366,3.621546 0.7690627,7.924183 3.4900885,11.306822 1.2246231,1.522389 1.3981647,1.587005 1.7629283,0.656408 0.2696075,-0.687831 0.9641803,-1.957807 1.4360067,-2.625631 0.610655,-0.864327 2.022777,-2.274332 2.778976,-2.774811 1.143007,-0.756483 2.341186,-1.255829 3.732815,-1.555668 0.842983,-0.181628 3.502448,-0.18207 4.351367,-7.26e-4 2.726957,0.582536 4.890619,2.091205 6.478841,4.517537 0.474495,0.724887 1.021129,1.818276 1.288603,2.577488 0.100413,0.285019 0.197027,0.559147 0.214697,0.609172 0.05329,0.150862 0.614556,-0.30166 1.278203,-1.030549 z"
       id="path2068"
       inkscape:connector-curvature="0"
       transform="matrix(0.26458333,0,0,0.26458333,-151.43855,17.705787)" />
    <path
       style="opacity:1;fill:#ffffff;fill-opacity:1;stroke:none;stroke-width:0.03454778;stroke-miterlimit:4;stroke-dasharray:none;stroke-dashoffset:0;stroke-opacity:1"
       d="M 17.805928,35.810494 C 13.616327,35.415581 10.035121,33.757297 7.1627657,30.88216 4.4398286,28.156586 2.8208501,24.853842 2.3176996,20.998143 2.2065612,20.146477 2.2080973,17.839281 2.3203908,16.956052 2.9518635,11.989292 5.6020388,7.6970598 9.7562942,4.9128394 11.846354,3.5120617 14.682925,2.4811058 17.198619,2.2079154 c 0.862877,-0.093704 2.908277,-0.093704 3.771154,0 3.667202,0.3982378 7.295474,2.1336898 9.947918,4.7582231 2.365102,2.3402164 4.018316,5.3635715 4.678412,8.5557625 0.42444,2.052575 0.425876,4.845175 0.0035,6.858153 -0.517686,2.467359 -1.584558,4.80817 -3.096349,6.793664 -2.670606,3.50741 -6.590984,5.831324 -10.931643,6.480037 -0.868865,0.129852 -3.076238,0.221729 -3.765708,0.156739 z m 11.951098,-5.862687 c 0.179856,-0.132027 0.598876,-0.547035 0.931157,-0.922241 3.298704,-3.724845 4.523451,-8.435085 3.45054,-13.270382 C 33.721332,13.874123 32.787197,11.659443 31.774559,10.150139 29.401679,6.613438 25.416052,4.2549846 20.848759,3.6849112 16.395763,3.129104 11.725434,4.7139263 8.4189045,7.9028391 7.1768711,9.1006926 6.2850402,10.335062 5.4465741,12.016799 c -0.7694635,1.543335 -1.2796036,3.172914 -1.6435712,5.250183 -0.1829208,1.043983 -0.1678166,2.990175 0.031638,4.076639 0.395782,2.155888 1.2729914,4.295036 2.5359211,6.184053 0.8178579,1.223305 1.8126478,2.393869 2.1163048,2.490247 0.1902007,0.06037 0.3633838,-0.111817 0.5100736,-0.507132 0.2317811,-0.62463 1.0092236,-2.057738 1.4693886,-2.708618 0.618639,-0.875033 2.026977,-2.282333 2.779291,-2.777242 1.133199,-0.745473 2.359345,-1.263661 3.674822,-1.553034 0.830898,-0.182777 3.559748,-0.182903 4.407706,-2.07e-4 2.72607,0.587356 4.843601,2.05183 6.45622,4.465091 0.47056,0.704186 1.065919,1.90301 1.331437,2.680998 0.106994,0.313503 0.221462,0.57002 0.254373,0.570039 0.03291,1.8e-5 0.206993,-0.107988 0.386848,-0.240014 z"
       id="path2070"
       inkscape:connector-curvature="0"
       transform="matrix(0.26458333,0,0,0.26458333,-151.43855,17.705787)" />
    <path
       style="opacity:1;fill:#ffffff;fill-opacity:1;stroke:none;stroke-width:0.03454778;stroke-miterlimit:4;stroke-dasharray:none;stroke-dashoffset:0;stroke-opacity:1"
       d="M 17.77138,35.814368 C 17.657372,35.798615 17.284256,35.751684 16.942233,35.710074 10.890744,34.973878 5.5482454,30.79115 3.3362496,25.057732 1.3339692,19.867891 2.0245536,13.989597 5.1742615,9.4124705 7.886704,5.4707743 12.162651,2.8620386 16.928498,2.2412643 c 1.071787,-0.1396053 3.239609,-0.1396053 4.311395,0 3.626369,0.4723518 7.075005,2.1524093 9.669703,4.7107487 2.625604,2.5888115 4.330611,5.954262 4.858223,9.589466 0.252844,1.742079 0.174494,4.339521 -0.179244,5.942219 -0.489344,2.217094 -1.402367,4.306622 -2.687037,6.149505 -2.716214,3.896462 -6.973763,6.471511 -11.709927,7.082395 -0.608394,0.07847 -3.055644,0.149145 -3.420231,0.09877 z m 12.413742,-6.300196 c 1.44148,-1.398146 2.727443,-3.39861 3.431201,-5.337633 1.200337,-3.307216 1.20107,-6.612917 0.0023,-10.191596 C 32.719998,11.302499 31.396636,9.252631 29.413983,7.4720838 27.139313,5.4292864 23.871236,4.0115221 20.624295,3.6589224 14.906473,3.0379984 9.0217309,5.9474087 6.076255,10.851458 c -1.2780864,2.127941 -2.1184516,4.74011 -2.3778953,7.391387 -0.250372,2.558573 0.5512206,5.704653 2.1505069,8.440283 0.7394704,1.264888 2.0455522,2.95476 2.5280355,3.270896 0.2589129,0.169646 0.3971776,0.02842 0.7533054,-0.769421 0.7710678,-1.727446 1.6275865,-2.95345 2.9241905,-4.185627 1.33177,-1.265595 2.980746,-2.122941 4.864625,-2.529246 0.729328,-0.157298 3.638014,-0.179924 4.307135,-0.0335 2.084075,0.456044 3.680478,1.311936 5.114728,2.7422 1.1175,1.114394 2.009911,2.482937 2.590743,3.972995 0.407564,1.045559 0.403297,1.036434 0.484613,1.036434 0.04087,0 0.38687,-0.303157 0.76888,-0.673682 z"
       id="path2072"
       inkscape:connector-curvature="0"
       transform="matrix(0.26458333,0,0,0.26458333,-151.43855,17.705787)" />
    <path
       style="opacity:1;fill:#ffffff;fill-opacity:1;stroke:none;stroke-width:0.03454778;stroke-miterlimit:4;stroke-dasharray:none;stroke-dashoffset:0;stroke-opacity:1"
       d="M 17.840476,19.502704 C 16.855792,19.294513 15.797716,18.741735 15.030688,18.034767 14.2206,17.28811 13.570069,16.21192 13.271815,15.12502 c -0.173456,-0.63211 -0.177854,-2.276258 -0.0077,-2.893654 0.58044,-2.106596 1.968352,-3.576116 4.058185,-4.2968036 0.371336,-0.1280569 0.643259,-0.1602513 1.57005,-0.1858872 1.050372,-0.029054 1.160222,-0.019735 1.745167,0.1480552 1.056039,0.3029219 1.802788,0.7326817 2.581273,1.4855428 0.791894,0.7658288 1.401008,1.8112598 1.675263,2.8752808 0.171107,0.663843 0.169705,2.093577 -0.0027,2.757987 -0.302956,1.167476 -0.857103,2.130425 -1.693261,2.942397 -0.804501,0.78123 -1.83848,1.330269 -2.919037,1.549996 -0.658125,0.133827 -1.792335,0.131395 -2.438531,-0.0052 z"
       id="path2074"
       inkscape:connector-curvature="0"
       transform="matrix(0.26458333,0,0,0.26458333,-151.43855,17.705787)" />
  </g>
</svg>
