<?xml version="1.0" encoding="UTF-8" standalone="no"?>
<!-- Created with Inkscape (http://www.inkscape.org/) -->

<svg
   xmlns:dc="http://purl.org/dc/elements/1.1/"
   xmlns:cc="http://creativecommons.org/ns#"
   xmlns:rdf="http://www.w3.org/1999/02/22-rdf-syntax-ns#"
   xmlns:svg="http://www.w3.org/2000/svg"
   xmlns="http://www.w3.org/2000/svg"
   xmlns:sodipodi="http://sodipodi.sourceforge.net/DTD/sodipodi-0.dtd"
   xmlns:inkscape="http://www.inkscape.org/namespaces/inkscape"
   width="10mm"
   height="10mm"
   viewBox="0 0 10 10"
   version="1.1"
   id="svg1418"
   inkscape:export-filename="C:\xampp\htdocs\salesmart\resources\images\salesmart\favorite-icon.png"
   inkscape:export-xdpi="508"
   inkscape:export-ydpi="508"
   inkscape:version="0.92.3 (2405546, 2018-03-11)"
   sodipodi:docname="favorite-icon.svg">
  <defs
     id="defs1412" />
  <sodipodi:namedview
     id="base"
     pagecolor="#ffffff"
     bordercolor="#666666"
     borderopacity="1.0"
     inkscape:pageopacity="0.0"
     inkscape:pageshadow="2"
     inkscape:zoom="16.757746"
     inkscape:cx="7.6368671"
     inkscape:cy="13.349248"
     inkscape:document-units="mm"
     inkscape:current-layer="layer1"
     showgrid="false"
     inkscape:window-width="1366"
     inkscape:window-height="716"
     inkscape:window-x="-8"
     inkscape:window-y="-8"
     inkscape:window-maximized="1" />
  <metadata
     id="metadata1415">
    <rdf:RDF>
      <cc:Work
         rdf:about="">
        <dc:format>image/svg+xml</dc:format>
        <dc:type
           rdf:resource="http://purl.org/dc/dcmitype/StillImage" />
        <dc:title />
      </cc:Work>
    </rdf:RDF>
  </metadata>
  <g
     inkscape:label="Layer 1"
     inkscape:groupmode="layer"
     id="layer1"
     transform="translate(151.43855,-17.705787)">
    <path
       style="color:#000000;font-style:normal;font-variant:normal;font-weight:normal;font-stretch:normal;font-size:medium;line-height:normal;font-family:sans-serif;font-variant-ligatures:normal;font-variant-position:normal;font-variant-caps:normal;font-variant-numeric:normal;font-variant-alternates:normal;font-feature-settings:normal;text-indent:0;text-align:start;text-decoration:none;text-decoration-line:none;text-decoration-style:solid;text-decoration-color:#000000;letter-spacing:normal;word-spacing:normal;text-transform:none;writing-mode:lr-tb;direction:ltr;text-orientation:mixed;dominant-baseline:auto;baseline-shift:baseline;text-anchor:start;white-space:normal;shape-padding:0;clip-rule:nonzero;display:inline;overflow:visible;visibility:visible;opacity:1;isolation:auto;mix-blend-mode:normal;color-interpolation:sRGB;color-interpolation-filters:linearRGB;solid-color:#000000;solid-opacity:1;vector-effect:none;fill-opacity:1;fill-rule:nonzero;stroke:#1d69b5;stroke-width:0.08466666;stroke-linecap:butt;stroke-linejoin:miter;stroke-miterlimit:4;stroke-dasharray:none;stroke-dashoffset:0;stroke-opacity:1;color-rendering:auto;image-rendering:auto;shape-rendering:auto;text-rendering:auto;enable-background:accumulate"
       d="m -147.41365,18.765839 -0.0414,5.16e-4 v 0.0083 c -0.0137,0.002 -0.0295,5.45e-4 -0.0429,0.0078 -0.017,0.009 -0.0225,0.0192 -0.031,0.03101 -0.008,0.0118 -0.0175,0.02549 -0.0274,0.04289 -0.0197,0.0348 -0.043,0.0824 -0.0703,0.14056 -0.0546,0.116211 -0.12378,0.277206 -0.20309,0.468706 -0.15861,0.38298 -0.35749,0.889058 -0.55087,1.402498 -0.19337,0.51344 -0.38214,1.034037 -0.52348,1.447457 -0.0707,0.20672 -0.13061,0.386153 -0.17209,0.525032 -0.0415,0.13887 -0.0648,0.229684 -0.0661,0.285254 -0.003,0.12095 0.0455,0.220172 0.13539,0.269752 0.0899,0.0496 0.21149,0.0519 0.35657,0.0155 0.0506,-0.0127 0.0994,-0.0453 0.14676,-0.107486 0.0473,-0.0623 0.0982,-0.155793 0.16071,-0.295073 0.12493,-0.27855 0.29903,-0.746961 0.58343,-1.540991 0.18407,-0.51392 0.3577,-0.984971 0.48989,-1.330151 0.0661,-0.17259 0.12181,-0.313122 0.16278,-0.411862 0.0205,-0.0494 0.0367,-0.0889 0.0491,-0.115238 0.005,-0.0104 0.008,-0.01705 0.0114,-0.02325 0.007,8e-5 0.0157,-0.001 0.0274,0 0.0285,0.002 0.0681,0.009 0.11938,0.0155 0.10247,0.0142 0.24611,0.03665 0.41599,0.06615 0.33977,0.0591 0.78659,0.143984 1.23403,0.232544 0.44744,0.0886 0.89501,0.182146 1.23662,0.257866 0.17081,0.0379 0.31621,0.07097 0.42013,0.09767 0.052,0.0133 0.0935,0.02387 0.12299,0.03307 0.0148,0.005 0.0274,0.009 0.0351,0.01189 5.3e-4,0.007 -6.1e-4,0.01894 -0.002,0.03514 -0.003,0.034 -0.0116,0.0843 -0.0253,0.146761 -0.0275,0.12491 -0.0747,0.298462 -0.13695,0.507462 -0.12445,0.41799 -0.3085,0.974353 -0.50953,1.548743 -0.20103,0.57439 -0.41989,1.168198 -0.61546,1.664498 -0.19556,0.4963 -0.36918,0.896373 -0.47439,1.075903 -0.12065,0.20588 -0.22753,0.340558 -0.35347,0.429948 -0.12594,0.0894 -0.2721,0.135704 -0.48059,0.163814 -0.16604,0.0224 -0.32226,-0.03421 -0.44752,-0.152445 -0.12526,-0.11821 -0.21891,-0.298188 -0.2558,-0.519348 -0.0151,-0.0903 -0.0305,-0.182906 -0.045,-0.257866 -0.0145,-0.075 -0.0267,-0.12975 -0.0351,-0.15813 -1.1e-4,-2.6e-4 -0.003,-0.0088 -0.004,-0.0098 -2e-4,-5.29e-4 -0.003,-0.0042 -0.004,-0.0062 -0.002,-0.003 -0.004,-0.0058 -0.006,-0.0078 -0.004,-0.005 -0.007,-0.008 -0.0119,-0.01137 -0.009,-0.007 -0.0201,-0.0138 -0.0331,-0.0217 -0.026,-0.0157 -0.0628,-0.03353 -0.108,-0.05633 -0.0903,-0.0457 -0.21812,-0.105288 -0.37466,-0.175698 -0.31308,-0.14081 -0.73981,-0.32416 -1.20716,-0.51418 -0.46607,-0.189491 -0.81136,-0.331375 -1.06815,-0.427365 -0.25679,-0.096 -0.42405,-0.146258 -0.54312,-0.150378 -0.0595,-0.002 -0.10974,0.007 -0.14831,0.03514 -0.0386,0.0279 -0.0611,0.07011 -0.0739,0.118856 -0.0255,0.0974 -0.0196,0.227772 -0.0196,0.400492 0,0.44509 0.15763,0.875182 0.41393,1.103292 0.0327,0.0291 0.0974,0.0666 0.19741,0.121439 0.1,0.0549 0.23189,0.124169 0.3886,0.203089 0.3134,0.15785 0.72171,0.354651 1.15032,0.552421 0.77005,0.35534 1.16175,0.535945 1.43919,0.625285 0.27744,0.0893 0.4414,0.08591 0.73846,0.07441 0.49049,-0.0191 0.68279,-0.0713 0.971,-0.262 0.27499,-0.18197 0.52864,-0.542541 0.85731,-1.277441 0.32867,-0.73489 0.73174,-1.847352 1.30276,-3.538802 0.13672,-0.40499 0.26111,-0.790829 0.3514,-1.086239 0.0451,-0.14771 0.082,-0.272872 0.10749,-0.366902 0.0127,-0.047 0.0225,-0.08651 0.0294,-0.117306 0.007,-0.0308 0.0114,-0.05038 0.0114,-0.07028 0,-0.0245 5.3e-4,-0.04866 -0.008,-0.07596 -0.009,-0.0272 -0.0269,-0.05418 -0.0548,-0.07648 -0.0557,-0.0445 -0.14699,-0.0808 -0.32195,-0.128675 -0.34991,-0.0958 -1.0343,-0.235016 -2.38693,-0.510046 -0.60829,-0.12369 -1.09674,-0.216702 -1.4609,-0.277502 -0.36417,-0.0608 -0.60114,-0.08958 -0.72243,-0.08578 z m 0.002,0.08372 5.3e-4,5.16e-4 h 5.2e-4 c 0.10303,-0.003 0.34443,0.02528 0.70694,0.08578 0.36252,0.0605 0.84905,0.151855 1.45676,0.275435 1.35261,0.27502 2.03779,0.416176 2.38073,0.510046 0.17148,0.0469 0.25792,0.0831 0.29301,0.111105 0.0175,0.014 0.0221,0.02531 0.0258,0.03721 0.004,0.0119 0.006,0.02734 0.006,0.05064 0,0.001 -0.003,0.02401 -0.0103,0.05271 -0.006,0.0288 -0.0169,0.06689 -0.0294,0.113171 -0.0251,0.0925 -0.0604,0.216125 -0.10542,0.363285 -0.09,0.29433 -0.21491,0.679882 -0.3514,1.084172 -0.57074,1.69064 -0.97447,2.8016 -1.3007,3.53105 -0.32624,0.72945 -0.57459,1.075722 -0.82631,1.242302 -0.28017,0.18541 -0.4418,0.22702 -0.92759,0.245979 -0.29667,0.0115 -0.44113,0.01602 -0.709,-0.07028 -0.2679,-0.0863 -0.65993,-0.26583 -1.42992,-0.62115 -0.4278,-0.19739 -0.83394,-0.393094 -1.14619,-0.550354 -0.15612,-0.0786 -0.29057,-0.147438 -0.38912,-0.201538 -0.0985,-0.0541 -0.16557,-0.09671 -0.17932,-0.109038 -0.22898,-0.20379 -0.38499,-0.61654 -0.38499,-1.04128 0,-0.17416 -0.004,-0.304308 0.0155,-0.378788 0.01,-0.0372 0.0247,-0.05875 0.0434,-0.07235 0.0187,-0.0135 0.0474,-0.02134 0.0956,-0.01964 0.0964,0.003 0.26129,0.0517 0.51573,0.146761 0.25443,0.0951 0.59778,0.236254 1.06401,0.425814 0.46655,0.18968 0.89548,0.371396 1.20717,0.511596 0.15585,0.0701 0.28283,0.128983 0.37103,0.173633 0.0441,0.0223 0.077,0.04108 0.0997,0.05478 0.0103,0.006 0.0185,0.012 0.0232,0.0155 0.006,0.0212 0.0179,0.07449 0.0315,0.144694 0.0143,0.0741 0.0299,0.164192 0.045,0.253732 0.0395,0.23686 0.14218,0.433303 0.28319,0.566373 0.141,0.13307 0.3236,0.202107 0.51573,0.176217 0.21585,-0.0291 0.37938,-0.0806 0.51935,-0.179834 0.13996,-0.0993 0.25313,-0.24438 0.37672,-0.455269 0.11225,-0.191551 0.28447,-0.590099 0.48059,-1.087789 0.19612,-0.4977 0.41413,-1.092825 0.61547,-1.668116 0.20135,-0.5753 0.38445,-1.130669 0.50953,-1.550809 0.0625,-0.21007 0.11221,-0.386554 0.14056,-0.515214 0.0142,-0.0643 0.0216,-0.11614 0.0253,-0.15658 0.002,-0.0202 0.004,-0.03681 0.002,-0.05271 -0.002,-0.0159 -0.002,-0.03354 -0.0212,-0.05064 -0.0124,-0.011 -0.0205,-0.01307 -0.0315,-0.01757 -0.0111,-0.004 -0.0248,-0.009 -0.0408,-0.01395 -0.0321,-0.0101 -0.0744,-0.02154 -0.12712,-0.03514 -0.10555,-0.027 -0.25037,-0.06174 -0.42168,-0.09974 -0.34262,-0.076 -0.79024,-0.168698 -1.23817,-0.257348 -0.44792,-0.0887 -0.89581,-0.173234 -1.23662,-0.232544 -0.17041,-0.0297 -0.31535,-0.05216 -0.41961,-0.06666 -0.0521,-0.007 -0.0935,-0.013 -0.12506,-0.0155 -0.0158,-0.001 -0.028,-0.0021 -0.0393,-0.0021 -0.006,9e-5 -0.0119,0.0011 -0.0176,0.0021 -0.003,5.29e-4 -0.006,0.0011 -0.01,0.0021 -0.002,5.3e-4 -0.004,0.0011 -0.006,0.0021 -0.002,7.94e-4 -0.006,0.0041 -0.006,0.0041 -2.6e-4,1.6e-4 -0.007,0.0036 -0.008,0.0036 -2.7e-4,2.65e-4 -0.003,0.0052 -0.004,0.0062 -0.002,0.002 -0.005,0.0042 -0.006,0.0062 -0.003,0.004 -0.005,0.009 -0.008,0.01344 -0.005,0.009 -0.0109,0.01877 -0.0176,0.03307 -0.0134,0.0285 -0.0299,0.0693 -0.0506,0.119373 -0.0415,0.10005 -0.0981,0.240918 -0.16433,0.413928 -0.13252,0.34602 -0.30565,0.817809 -0.4899,1.332219 -0.28426,0.79365 -0.45995,1.263887 -0.58239,1.536857 -0.0612,0.13649 -0.11017,0.222505 -0.15038,0.275435 -0.0402,0.0529 -0.0675,0.07043 -0.0977,0.07803 -0.13259,0.0333 -0.2345,0.02643 -0.29662,-0.0083 -0.0621,-0.0343 -0.0943,-0.0941 -0.092,-0.19327 5.2e-4,-0.0257 0.0237,-0.126996 0.0646,-0.264066 0.0409,-0.13707 0.0996,-0.315335 0.17002,-0.521415 0.14091,-0.41216 0.33035,-0.9326 0.52348,-1.44539 0.19314,-0.5128 0.39075,-1.018295 0.5488,-1.399915 0.079,-0.1908 0.14742,-0.351068 0.20102,-0.465088 0.0268,-0.057 0.0504,-0.101328 0.0682,-0.132808 0.009,-0.0157 0.0161,-0.02951 0.0217,-0.03721 0.006,-0.008 0.0116,-0.0097 0.004,-0.0057 -0.002,10e-4 0.016,-0.0052 0.045,-0.0062 z m 0.57671,1.512052 c -0.10641,0.004 -0.21099,0.06539 -0.27337,0.181901 -0.10337,0.19314 -0.0637,0.389206 0.0548,0.503845 0.11848,0.11463 0.31467,0.145826 0.49816,0.02946 0.0468,-0.0297 0.0732,-0.083 0.0899,-0.144694 0.0167,-0.0618 0.0219,-0.134563 0.0134,-0.207223 -0.0267,-0.22831 -0.20547,-0.370205 -0.38294,-0.363285 z m 0.004,0.0863 c 0.13049,-0.005 0.27294,0.09739 0.29507,0.286804 0.007,0.0619 0.002,0.12428 -0.0119,0.17415 -0.0135,0.0499 -0.0362,0.0851 -0.0527,0.0956 -0.15575,0.0987 -0.30296,0.07083 -0.39431,-0.01757 -0.0914,-0.0884 -0.12744,-0.239846 -0.0393,-0.404627 0.0499,-0.0933 0.12473,-0.131268 0.20309,-0.134358 z m 0.93379,0.214457 v 0.01189 c -0.0668,0.004 -0.13074,0.01052 -0.17415,0.04082 -0.0546,0.0381 -0.0899,0.0942 -0.12092,0.162264 -0.0377,0.0827 -0.0566,0.159474 -0.047,0.232544 0.01,0.0731 0.0491,0.139744 0.11523,0.197404 0.13229,0.11533 0.3714,0.208881 0.75603,0.324011 0.39577,0.11847 0.638,0.179092 0.8046,0.183451 0.0833,0.002 0.14966,-0.01013 0.20309,-0.04082 0.0534,-0.0307 0.0903,-0.07771 0.12092,-0.134875 0.0455,-0.085 0.0714,-0.162092 0.0724,-0.236162 0.001,-0.0741 -0.0248,-0.143998 -0.078,-0.203088 -0.10638,-0.11819 -0.30867,-0.204767 -0.63098,-0.300757 -0.50568,-0.15059 -0.79056,-0.228241 -0.97617,-0.234611 z m 0.0408,0.0863 c 0.16409,0.006 0.45016,0.0817 0.95498,0.232027 0.31768,0.0946 0.50851,0.183015 0.59169,0.275435 0.0416,0.0462 0.0596,0.09059 0.0589,0.144694 -7.9e-4,0.0541 -0.0208,0.119364 -0.0625,0.197404 -0.0263,0.0491 -0.0537,0.0825 -0.0899,0.103353 -0.0362,0.0208 -0.0845,0.03136 -0.15813,0.02946 -0.14722,-0.004 -0.38916,-0.0639 -0.78342,-0.181901 -0.38142,-0.114171 -0.61199,-0.210172 -0.72243,-0.306442 -0.0552,-0.0481 -0.0812,-0.09379 -0.0879,-0.144694 -0.007,-0.0509 0.007,-0.111028 0.0408,-0.185518 0.0285,-0.0625 0.0561,-0.102044 0.092,-0.127124 0.0359,-0.0251 0.0838,-0.03959 0.16588,-0.03669 z m -1.3808,0.917773 -0.0465,0.0083 c -7.9e-4,1.3e-4 -0.002,-1.4e-4 -0.003,0 v 5.29e-4 c -0.0424,0.007 -0.0854,0.02278 -0.1266,0.04858 -0.16136,0.10162 -0.21534,0.278091 -0.17984,0.427881 0.0355,0.14979 0.16448,0.275435 0.3514,0.275435 0.10086,0 0.21653,-0.0587 0.28319,-0.139009 0.20765,-0.2502 -0.005,-0.611116 -0.27905,-0.612366 z m -0.0351,0.09198 c 0.21595,-0.034 0.42362,0.267407 0.25012,0.476457 -0.0456,0.0549 -0.1565,0.107487 -0.21911,0.107487 -0.14995,0 -0.24151,-0.0939 -0.26923,-0.21084 -0.0277,-0.11695 0.0124,-0.254964 0.14417,-0.337964 0.0315,-0.0195 0.0637,-0.03024 0.0941,-0.03514 z m 0.88264,0.177767 c -0.14641,0.0178 -0.26438,0.09089 -0.32815,0.191203 -0.0638,0.10032 -0.0718,0.229698 -0.002,0.342098 0.021,0.0338 0.0562,0.06223 0.1018,0.09353 0.0456,0.0312 0.10208,0.06407 0.16795,0.09767 0.13172,0.0671 0.29968,0.137748 0.47284,0.201538 0.17317,0.0638 0.35106,0.120337 0.50953,0.160197 0.15847,0.0399 0.29461,0.06303 0.3886,0.05633 0.0585,-0.004 0.10493,-0.009 0.1447,-0.01964 0.0398,-0.0106 0.0736,-0.02849 0.0977,-0.0584 0.0482,-0.0598 0.0506,-0.141862 0.0506,-0.277502 0,-0.0737 8.2e-4,-0.130601 -0.0119,-0.183451 -0.0127,-0.0528 -0.043,-0.100303 -0.0915,-0.138493 -0.0969,-0.0764 -0.2659,-0.132694 -0.60152,-0.250114 -0.18729,-0.0655 -0.37979,-0.123434 -0.54105,-0.162264 -0.16126,-0.0388 -0.28369,-0.06181 -0.3576,-0.05271 z m 0.01,0.08423 c 0.0385,-0.005 0.17018,0.01254 0.32814,0.05064 0.15795,0.038 0.34876,0.0956 0.5333,0.160197 0.33555,0.117401 0.50498,0.178402 0.57826,0.236162 0.0366,0.0289 0.0493,0.05398 0.0584,0.09198 0.009,0.0379 0.0119,0.09029 0.0119,0.163814 0,0.1332 -0.0105,0.198693 -0.0315,0.224792 -0.0105,0.013 -0.0254,0.02166 -0.0548,0.02946 -0.0294,0.008 -0.0719,0.01357 -0.12867,0.01757 -0.0728,0.005 -0.20661,-0.01588 -0.36122,-0.05478 -0.15461,-0.0389 -0.33162,-0.0952 -0.5023,-0.15813 -0.17069,-0.0629 -0.33514,-0.132514 -0.4625,-0.197404 -0.0637,-0.0325 -0.11915,-0.06388 -0.1602,-0.09198 -0.0411,-0.0281 -0.0681,-0.05461 -0.0765,-0.06821 -0.0536,-0.0864 -0.0464,-0.175831 0.002,-0.252181 0.0485,-0.0764 0.14156,-0.136828 0.26561,-0.151928 z m -1.40612,0.792716 c -0.12686,0.006 -0.25074,0.08149 -0.29869,0.232544 -0.0462,0.1456 -0.0378,0.271224 0.031,0.357084 0.0688,0.0859 0.18896,0.122217 0.34003,0.107487 0.10645,-0.0104 0.18263,-0.02825 0.23823,-0.07235 0.0556,-0.044 0.0814,-0.111117 0.0935,-0.196887 0.0186,-0.13164 -0.0316,-0.243797 -0.1111,-0.318327 -0.0796,-0.0745 -0.18736,-0.114064 -0.29301,-0.109554 z m 0.004,0.08423 c 0.0817,-0.003 0.17047,0.02965 0.23254,0.08785 0.0621,0.0581 0.0991,0.138603 0.0842,0.243913 -0.0108,0.0762 -0.0288,0.115917 -0.0625,0.142627 -0.0337,0.0267 -0.0928,0.04498 -0.19327,0.05478 -0.13403,0.0131 -0.21999,-0.01948 -0.26561,-0.07648 -0.0456,-0.057 -0.0587,-0.149553 -0.0176,-0.279053 0.0381,-0.12017 0.1243,-0.169312 0.2222,-0.173632 z m 0.83612,0.1757 -0.0176,0.02119 -0.15606,0.19172 c -0.0712,0.0879 -0.12126,0.163158 -0.14056,0.238228 -0.0193,0.0751 -2.9e-4,0.150037 0.0543,0.212907 0.10899,0.12574 0.34593,0.226651 0.76377,0.375171 0.40248,0.14305 0.63069,0.217701 0.7891,0.236161 0.15841,0.0185 0.25043,-0.0298 0.34003,-0.119372 0.0837,-0.0837 0.13839,-0.1632 0.15245,-0.24598 0.014,-0.0828 -0.0186,-0.163524 -0.0899,-0.234094 -0.14253,-0.14114 -0.43519,-0.266554 -0.91984,-0.424264 z m 0.0295,0.0956 0.71882,0.236161 c 0.48133,0.15663 0.77078,0.288247 0.88831,0.404627 0.0588,0.0582 0.0759,0.105547 0.0667,0.160197 -0.009,0.0547 -0.0516,0.121344 -0.1292,0.198954 -0.0825,0.0825 -0.13065,0.112001 -0.2713,0.0956 -0.14064,-0.0164 -0.36983,-0.0893 -0.77153,-0.232027 -0.41551,-0.14769 -0.64738,-0.256099 -0.72863,-0.349849 -0.0406,-0.0469 -0.0488,-0.0837 -0.0351,-0.136943 0.0137,-0.0532 0.057,-0.122596 0.12505,-0.206706 z"
       id="path1973"
       inkscape:connector-curvature="0" />
    <path
       style="opacity:1;fill:#ffffff;fill-opacity:0.5929648;stroke:none;stroke-width:0.11934781;stroke-miterlimit:4;stroke-dasharray:1.43217369, 0.11934781;stroke-dashoffset:0;stroke-opacity:1"
       d="M 18.777984,33.241758 C 17.800294,33.156392 16.979907,32.845232 13.347659,31.182123 9.7847658,29.550769 6.6240267,27.993542 5.9200701,27.522712 5.3139428,27.117313 4.7514677,26.092164 4.5064819,24.946351 4.4239324,24.560262 4.3980353,24.173297 4.3974033,23.316454 c -7.78e-4,-1.054827 0.00648,-1.129024 0.118519,-1.212146 0.1626108,-0.120638 0.4795399,-0.06863 1.4023366,0.230109 1.5549992,0.503409 8.1495091,3.224775 10.2846181,4.244169 l 0.803346,0.383552 0.06356,0.320319 c 0.03496,0.176176 0.106063,0.561999 0.15801,0.857385 0.202174,1.149604 0.50578,1.816365 1.102636,2.421535 0.793016,0.804063 1.631257,0.989935 2.94691,0.653448 1.311998,-0.335553 2.158147,-1.143371 3.038087,-2.900458 C 26.139267,24.672473 30.74207,11.490519 30.742523,9.9078257 30.742642,9.5244081 30.627981,9.396604 30.15874,9.2570713 28.660452,8.8115428 21.29966,7.3156863 17.960664,6.7781842 16.965478,6.6179821 16.4812,6.5909123 16.304281,6.6855968 16.111037,6.7890179 15.33643,8.775505 13.33746,14.294038 c -1.66676,4.601407 -2.275918,6.091586 -2.695649,6.594357 -0.157792,0.189009 -0.188915,0.199861 -0.6497407,0.226537 -0.4586909,0.02655 -0.4920594,0.01997 -0.6378787,-0.125849 C 9.0655488,20.70044 9.1354824,20.340803 9.9537616,17.905769 11.268203,13.994256 13.807128,7.3760171 14.874769,5.0781375 l 0.25058,-0.5393218 0.394143,1.194e-4 c 0.992328,3.007e-4 4.347512,0.6057939 11.284631,2.0364803 4.364923,0.900206 5.653765,1.2048631 6.34706,1.500321 l 0.290159,0.1236557 -0.03349,0.2433797 c -0.175128,1.2727787 -3.852883,12.0983912 -5.677988,16.7133752 -1.828303,4.623068 -2.976489,6.5389 -4.420378,7.375719 -0.835686,0.484329 -1.379031,0.627747 -2.582708,0.681714 -0.382604,0.01716 -0.870191,0.03989 -1.083525,0.05053 -0.213334,0.01063 -0.602706,5.96e-4 -0.865271,-0.02235 z"
       id="path830"
       inkscape:connector-curvature="0"
       transform="matrix(0.26458333,0,0,0.26458333,-151.43855,17.705787)" />
    <path
       style="opacity:1;fill:#ffffff;fill-opacity:0.5929648;stroke:none;stroke-width:0.11934781;stroke-miterlimit:4;stroke-dasharray:1.43217369, 0.11934781;stroke-dashoffset:0;stroke-opacity:1"
       d="m 25.401786,14.953402 c -0.552359,-0.102148 -0.9952,-0.218218 -2.178097,-0.570884 -1.613468,-0.481036 -2.599401,-0.911214 -2.895824,-1.263493 -0.2646,-0.314458 -0.138125,-0.991636 0.240886,-1.289766 0.326452,-0.256787 1.027952,-0.150162 3.291984,0.50037 2.009563,0.577414 2.80327,0.934986 3.036431,1.367941 0.09933,0.184436 0.103238,0.238065 0.03577,0.490329 -0.155337,0.580788 -0.458239,0.860767 -0.917574,0.848137 -0.107721,-0.003 -0.383829,-0.04015 -0.613574,-0.08263 z"
       id="path832"
       inkscape:connector-curvature="0"
       transform="matrix(0.26458333,0,0,0.26458333,-151.43855,17.705787)" />
    <path
       style="opacity:1;fill:#ffffff;fill-opacity:0.5929648;stroke:none;stroke-width:0.11934781;stroke-miterlimit:4;stroke-dasharray:1.43217369, 0.11934781;stroke-dashoffset:0;stroke-opacity:1"
       d="m 17.279898,12.472459 c -0.211999,-0.06363 -0.490304,-0.320052 -0.567679,-0.523046 -0.145712,-0.382278 0.0215,-1.006755 0.335772,-1.253958 0.358386,-0.281906 0.932236,-0.09923 1.158857,0.368906 0.133582,0.275945 0.166722,0.812455 0.06647,1.076134 -0.1016,0.267228 -0.625649,0.442346 -0.993421,0.331964 z"
       id="path834"
       inkscape:connector-curvature="0"
       transform="matrix(0.26458333,0,0,0.26458333,-151.43855,17.705787)" />
    <path
       style="opacity:1;fill:#ffffff;fill-opacity:0.5929648;stroke:none;stroke-width:0.11934781;stroke-miterlimit:4;stroke-dasharray:1.43217369, 0.11934781;stroke-dashoffset:0;stroke-opacity:1"
       d="m 15.389614,17.203012 c -0.258836,-0.160376 -0.422774,-0.554723 -0.371831,-0.894431 0.03305,-0.220388 0.09609,-0.33391 0.296949,-0.534774 0.218896,-0.218896 0.290317,-0.254994 0.504505,-0.254994 0.52416,0 0.899997,0.390128 0.899997,0.934219 0,0.34347 -0.163238,0.604032 -0.481536,0.76863 -0.226452,0.117103 -0.6438,0.107926 -0.848084,-0.01865 z"
       id="path836"
       inkscape:connector-curvature="0"
       transform="matrix(0.26458333,0,0,0.26458333,-151.43855,17.705787)" />
    <path
       style="opacity:1;fill:#ffffff;fill-opacity:0.5929648;stroke:none;stroke-width:0.11934781;stroke-miterlimit:4;stroke-dasharray:1.43217369, 0.11934781;stroke-dashoffset:0;stroke-opacity:1"
       d="m 13.395893,21.366282 c -0.234911,-0.09462 -0.336743,-0.325694 -0.300081,-0.680921 0.06078,-0.588856 0.320899,-0.871124 0.800867,-0.869046 0.524365,0.0023 1.020364,0.538828 0.935213,1.011688 -0.05656,0.314075 -0.129833,0.420689 -0.353316,0.514066 -0.222045,0.09278 -0.87615,0.107405 -1.082683,0.02421 z"
       id="path838"
       inkscape:connector-curvature="0"
       transform="matrix(0.26458333,0,0,0.26458333,-151.43855,17.705787)" />
    <path
       style="opacity:1;fill:#ffffff;fill-opacity:0.5929648;stroke:none;stroke-width:0.11934781;stroke-miterlimit:4;stroke-dasharray:1.43217369, 0.11934781;stroke-dashoffset:0;stroke-opacity:1"
       d="m 21.194776,24.440055 c -0.622051,-0.172238 -2.274625,-0.738237 -3.048321,-1.044036 -1.454311,-0.574808 -1.908483,-0.889584 -1.850245,-1.282363 0.02144,-0.144561 0.338782,-0.624918 0.645691,-0.977359 l 0.226754,-0.260394 1.43124,0.461095 c 2.656781,0.855919 3.945185,1.400052 4.405864,1.860731 0.341577,0.341576 0.280149,0.612467 -0.251694,1.109943 -0.294673,0.275633 -0.308946,0.281481 -0.676542,0.2772 -0.206535,-0.0024 -0.603771,-0.06757 -0.882747,-0.144817 z"
       id="path840"
       inkscape:connector-curvature="0"
       transform="matrix(0.26458333,0,0,0.26458333,-151.43855,17.705787)" />
    <path
       style="opacity:1;fill:#ffffff;fill-opacity:0.5929648;stroke:none;stroke-width:0.11934781;stroke-miterlimit:4;stroke-dasharray:1.43217369, 0.11934781;stroke-dashoffset:0;stroke-opacity:1"
       d="m 23.134178,19.69971 c -1.939434,-0.407529 -4.661382,-1.55102 -4.904224,-2.060265 -0.139519,-0.292574 -0.06588,-0.572424 0.218128,-0.829013 0.316382,-0.285832 0.60501,-0.357014 1.117889,-0.275695 1.405502,0.222847 4.664681,1.330696 4.959367,1.685772 0.184115,0.221844 0.154768,1.430506 -0.03652,1.503908 -0.242922,0.09322 -0.845766,0.08222 -1.354644,-0.02471 z"
       id="path842"
       inkscape:connector-curvature="0"
       transform="matrix(0.26458333,0,0,0.26458333,-151.43855,17.705787)" />
    <path
       style="opacity:1;fill:#ffffff;fill-opacity:0.5929648;stroke:none;stroke-width:0.11934781;stroke-miterlimit:4;stroke-dasharray:1.43217369, 0.11934781;stroke-dashoffset:0;stroke-opacity:1"
       d="M 18.71831,33.241168 C 18.145492,33.178185 17.644902,33.040111 16.848947,32.725555 14.67562,31.866669 7.5245686,28.487123 6.1399331,27.664536 5.7871288,27.454941 5.6091554,27.299457 5.4001895,27.018267 5.0401592,26.533802 4.7502584,25.903335 4.5609327,25.193078 4.4218788,24.671417 4.4074108,24.508482 4.4022514,23.40605 c -0.00537,-1.147233 7.969e-4,-1.217839 0.1136709,-1.301658 0.2950709,-0.219116 1.2405175,0.09032 5.2442166,1.716373 2.7506851,1.117158 5.2801001,2.198175 6.3957551,2.733406 l 0.850323,0.40794 0.06356,0.320333 c 0.03496,0.176183 0.106162,0.562012 0.158227,0.857398 0.262893,1.49149 0.89597,2.509518 1.851557,2.977423 0.615399,0.301332 1.058477,0.337172 1.936191,0.156621 1.472778,-0.302962 2.386483,-1.130839 3.327238,-3.014696 1.742488,-3.489328 6.192463,-16.185348 6.381126,-18.205705 C 30.772365,9.5368415 30.686885,9.4156215 30.161367,9.2554302 28.832679,8.8504132 20.870678,7.236597 17.912712,6.7727531 16.739248,6.5887401 16.405646,6.5846752 16.249308,6.7524846 16.043641,6.9732422 15.24046,9.0528432 13.347577,14.265661 11.652844,18.93279 11.172733,20.130902 10.761179,20.719989 10.517434,21.06888 10.418432,21.11351 9.8689421,21.122211 9.5402458,21.127414 9.4739805,21.108872 9.3390311,20.973922 9.1976427,20.832534 9.1874094,20.789038 9.2161866,20.451776 9.2334524,20.249425 9.372717,19.683737 9.5256636,19.194692 10.574223,15.841927 13.710355,7.5569264 14.853134,5.1206362 l 0.272912,-0.5818205 h 0.379339 c 0.815731,0 3.447428,0.4471896 7.867489,1.3368785 6.925407,1.3939757 9.158111,1.8984442 9.867852,2.2295923 0.190549,0.088906 0.198979,0.1060463 0.166981,0.3394984 -0.142305,1.0382274 -3.098213,9.8924401 -4.991266,14.9509821 -1.699027,4.540075 -3.022882,7.222459 -4.128587,8.365312 -0.657008,0.679081 -1.538588,1.167892 -2.403041,1.332418 -0.691844,0.131674 -2.531654,0.217475 -3.166503,0.147671 z"
       id="path844"
       inkscape:connector-curvature="0"
       transform="matrix(0.26458333,0,0,0.26458333,-151.43855,17.705787)" />
  </g>
</svg>
