<?xml version="1.0" encoding="UTF-8" standalone="no"?>
<!-- Created with Inkscape (http://www.inkscape.org/) -->

<svg
   xmlns:dc="http://purl.org/dc/elements/1.1/"
   xmlns:cc="http://creativecommons.org/ns#"
   xmlns:rdf="http://www.w3.org/1999/02/22-rdf-syntax-ns#"
   xmlns:svg="http://www.w3.org/2000/svg"
   xmlns="http://www.w3.org/2000/svg"
   xmlns:sodipodi="http://sodipodi.sourceforge.net/DTD/sodipodi-0.dtd"
   xmlns:inkscape="http://www.inkscape.org/namespaces/inkscape"
   width="10mm"
   height="10mm"
   viewBox="0 0 10 10"
   version="1.1"
   id="svg1418"
   inkscape:export-filename="C:\xampp\htdocs\webcustsalesmart\resources\images\salesmart\favorite-icon.png"
   inkscape:export-xdpi="508"
   inkscape:export-ydpi="508"
   inkscape:version="0.92.3 (2405546, 2018-03-11)"
   sodipodi:docname="favorite-icon.svg">
  <defs
     id="defs1412" />
  <sodipodi:namedview
     id="base"
     pagecolor="#ffffff"
     bordercolor="#666666"
     borderopacity="1.0"
     inkscape:pageopacity="0.0"
     inkscape:pageshadow="2"
     inkscape:zoom="14.472708"
     inkscape:cx="18.897638"
     inkscape:cy="18.897638"
     inkscape:document-units="mm"
     inkscape:current-layer="layer1"
     showgrid="false"
     inkscape:window-width="1366"
     inkscape:window-height="716"
     inkscape:window-x="-8"
     inkscape:window-y="-8"
     inkscape:window-maximized="1" />
  <metadata
     id="metadata1415">
    <rdf:RDF>
      <cc:Work
         rdf:about="">
        <dc:format>image/svg+xml</dc:format>
        <dc:type
           rdf:resource="http://purl.org/dc/dcmitype/StillImage" />
        <dc:title />
      </cc:Work>
    </rdf:RDF>
  </metadata>
  <g
     inkscape:label="Layer 1"
     inkscape:groupmode="layer"
     id="layer1"
     transform="translate(151.43855,-17.705787)">
    <path
       style="color:#000000;font-style:normal;font-variant:normal;font-weight:normal;font-stretch:normal;font-size:medium;line-height:normal;font-family:sans-serif;font-variant-ligatures:normal;font-variant-position:normal;font-variant-caps:normal;font-variant-numeric:normal;font-variant-alternates:normal;font-feature-settings:normal;text-indent:0;text-align:start;text-decoration:none;text-decoration-line:none;text-decoration-style:solid;text-decoration-color:#000000;letter-spacing:normal;word-spacing:normal;text-transform:none;writing-mode:lr-tb;direction:ltr;text-orientation:mixed;dominant-baseline:auto;baseline-shift:baseline;text-anchor:start;white-space:normal;shape-padding:0;clip-rule:nonzero;display:inline;overflow:visible;visibility:visible;opacity:1;isolation:auto;mix-blend-mode:normal;color-interpolation:sRGB;color-interpolation-filters:linearRGB;solid-color:#000000;solid-opacity:1;vector-effect:none;fill:#ffffff;fill-opacity:1;fill-rule:nonzero;stroke:#1d69b5;stroke-width:0.08466666;stroke-linecap:butt;stroke-linejoin:miter;stroke-miterlimit:4;stroke-dasharray:none;stroke-dashoffset:0;stroke-opacity:1;color-rendering:auto;image-rendering:auto;shape-rendering:auto;text-rendering:auto;enable-background:accumulate"
       d="m -147.41365,18.765839 -0.0414,5.16e-4 v 0.0083 c -0.0137,0.002 -0.0295,5.45e-4 -0.0429,0.0078 -0.017,0.009 -0.0225,0.0192 -0.031,0.03101 -0.008,0.0118 -0.0175,0.02549 -0.0274,0.04289 -0.0197,0.0348 -0.043,0.0824 -0.0703,0.14056 -0.0546,0.116211 -0.12378,0.277206 -0.20309,0.468706 -0.15861,0.38298 -0.35749,0.889058 -0.55087,1.402498 -0.19337,0.51344 -0.38214,1.034037 -0.52348,1.447457 -0.0707,0.20672 -0.13061,0.386153 -0.17209,0.525032 -0.0415,0.13887 -0.0648,0.229684 -0.0661,0.285254 -0.003,0.12095 0.0455,0.220172 0.13539,0.269752 0.0899,0.0496 0.21149,0.0519 0.35657,0.0155 0.0506,-0.0127 0.0994,-0.0453 0.14676,-0.107486 0.0473,-0.0623 0.0982,-0.155793 0.16071,-0.295073 0.12493,-0.27855 0.29903,-0.746961 0.58343,-1.540991 0.18407,-0.51392 0.3577,-0.984971 0.48989,-1.330151 0.0661,-0.17259 0.12181,-0.313122 0.16278,-0.411862 0.0205,-0.0494 0.0367,-0.0889 0.0491,-0.115238 0.005,-0.0104 0.008,-0.01705 0.0114,-0.02325 0.007,8e-5 0.0157,-0.001 0.0274,0 0.0285,0.002 0.0681,0.009 0.11938,0.0155 0.10247,0.0142 0.24611,0.03665 0.41599,0.06615 0.33977,0.0591 0.78659,0.143984 1.23403,0.232544 0.44744,0.0886 0.89501,0.182146 1.23662,0.257866 0.17081,0.0379 0.31621,0.07097 0.42013,0.09767 0.052,0.0133 0.0935,0.02387 0.12299,0.03307 0.0148,0.005 0.0274,0.009 0.0351,0.01189 5.3e-4,0.007 -6.1e-4,0.01894 -0.002,0.03514 -0.003,0.034 -0.0116,0.0843 -0.0253,0.146761 -0.0275,0.12491 -0.0747,0.298462 -0.13695,0.507462 -0.12445,0.41799 -0.3085,0.974353 -0.50953,1.548743 -0.20103,0.57439 -0.41989,1.168198 -0.61546,1.664498 -0.19556,0.4963 -0.36918,0.896373 -0.47439,1.075903 -0.12065,0.20588 -0.22753,0.340558 -0.35347,0.429948 -0.12594,0.0894 -0.2721,0.135704 -0.48059,0.163814 -0.16604,0.0224 -0.32226,-0.03421 -0.44752,-0.152445 -0.12526,-0.11821 -0.21891,-0.298188 -0.2558,-0.519348 -0.0151,-0.0903 -0.0305,-0.182906 -0.045,-0.257866 -0.0145,-0.075 -0.0267,-0.12975 -0.0351,-0.15813 -1.1e-4,-2.6e-4 -0.003,-0.0088 -0.004,-0.0098 -2e-4,-5.29e-4 -0.003,-0.0042 -0.004,-0.0062 -0.002,-0.003 -0.004,-0.0058 -0.006,-0.0078 -0.004,-0.005 -0.007,-0.008 -0.0119,-0.01137 -0.009,-0.007 -0.0201,-0.0138 -0.0331,-0.0217 -0.026,-0.0157 -0.0628,-0.03353 -0.108,-0.05633 -0.0903,-0.0457 -0.21812,-0.105288 -0.37466,-0.175698 -0.31308,-0.14081 -0.73981,-0.32416 -1.20716,-0.51418 -0.46607,-0.189491 -0.81136,-0.331375 -1.06815,-0.427365 -0.25679,-0.096 -0.42405,-0.146258 -0.54312,-0.150378 -0.0595,-0.002 -0.10974,0.007 -0.14831,0.03514 -0.0386,0.0279 -0.0611,0.07011 -0.0739,0.118856 -0.0255,0.0974 -0.0196,0.227772 -0.0196,0.400492 0,0.44509 0.15763,0.875182 0.41393,1.103292 0.0327,0.0291 0.0974,0.0666 0.19741,0.121439 0.1,0.0549 0.23189,0.124169 0.3886,0.203089 0.3134,0.15785 0.72171,0.354651 1.15032,0.552421 0.77005,0.35534 1.16175,0.535945 1.43919,0.625285 0.27744,0.0893 0.4414,0.08591 0.73846,0.07441 0.49049,-0.0191 0.68279,-0.0713 0.971,-0.262 0.27499,-0.18197 0.52864,-0.542541 0.85731,-1.277441 0.32867,-0.73489 0.73174,-1.847352 1.30276,-3.538802 0.13672,-0.40499 0.26111,-0.790829 0.3514,-1.086239 0.0451,-0.14771 0.082,-0.272872 0.10749,-0.366902 0.0127,-0.047 0.0225,-0.08651 0.0294,-0.117306 0.007,-0.0308 0.0114,-0.05038 0.0114,-0.07028 0,-0.0245 5.3e-4,-0.04866 -0.008,-0.07596 -0.009,-0.0272 -0.0269,-0.05418 -0.0548,-0.07648 -0.0557,-0.0445 -0.14699,-0.0808 -0.32195,-0.128675 -0.34991,-0.0958 -1.0343,-0.235016 -2.38693,-0.510046 -0.60829,-0.12369 -1.09674,-0.216702 -1.4609,-0.277502 -0.36417,-0.0608 -0.60114,-0.08958 -0.72243,-0.08578 z m 0.002,0.08372 5.3e-4,5.16e-4 h 5.2e-4 c 0.10303,-0.003 0.34443,0.02528 0.70694,0.08578 0.36252,0.0605 0.84905,0.151855 1.45676,0.275435 1.35261,0.27502 2.03779,0.416176 2.38073,0.510046 0.17148,0.0469 0.25792,0.0831 0.29301,0.111105 0.0175,0.014 0.0221,0.02531 0.0258,0.03721 0.004,0.0119 0.006,0.02734 0.006,0.05064 0,0.001 -0.003,0.02401 -0.0103,0.05271 -0.006,0.0288 -0.0169,0.06689 -0.0294,0.113171 -0.0251,0.0925 -0.0604,0.216125 -0.10542,0.363285 -0.09,0.29433 -0.21491,0.679882 -0.3514,1.084172 -0.57074,1.69064 -0.97447,2.8016 -1.3007,3.53105 -0.32624,0.72945 -0.57459,1.075722 -0.82631,1.242302 -0.28017,0.18541 -0.4418,0.22702 -0.92759,0.245979 -0.29667,0.0115 -0.44113,0.01602 -0.709,-0.07028 -0.2679,-0.0863 -0.65993,-0.26583 -1.42992,-0.62115 -0.4278,-0.19739 -0.83394,-0.393094 -1.14619,-0.550354 -0.15612,-0.0786 -0.29057,-0.147438 -0.38912,-0.201538 -0.0985,-0.0541 -0.16557,-0.09671 -0.17932,-0.109038 -0.22898,-0.20379 -0.38499,-0.61654 -0.38499,-1.04128 0,-0.17416 -0.004,-0.304308 0.0155,-0.378788 0.01,-0.0372 0.0247,-0.05875 0.0434,-0.07235 0.0187,-0.0135 0.0474,-0.02134 0.0956,-0.01964 0.0964,0.003 0.26129,0.0517 0.51573,0.146761 0.25443,0.0951 0.59778,0.236254 1.06401,0.425814 0.46655,0.18968 0.89548,0.371396 1.20717,0.511596 0.15585,0.0701 0.28283,0.128983 0.37103,0.173633 0.0441,0.0223 0.077,0.04108 0.0997,0.05478 0.0103,0.006 0.0185,0.012 0.0232,0.0155 0.006,0.0212 0.0179,0.07449 0.0315,0.144694 0.0143,0.0741 0.0299,0.164192 0.045,0.253732 0.0395,0.23686 0.14218,0.433303 0.28319,0.566373 0.141,0.13307 0.3236,0.202107 0.51573,0.176217 0.21585,-0.0291 0.37938,-0.0806 0.51935,-0.179834 0.13996,-0.0993 0.25313,-0.24438 0.37672,-0.455269 0.11225,-0.191551 0.28447,-0.590099 0.48059,-1.087789 0.19612,-0.4977 0.41413,-1.092825 0.61547,-1.668116 0.20135,-0.5753 0.38445,-1.130669 0.50953,-1.550809 0.0625,-0.21007 0.11221,-0.386554 0.14056,-0.515214 0.0142,-0.0643 0.0216,-0.11614 0.0253,-0.15658 0.002,-0.0202 0.004,-0.03681 0.002,-0.05271 -0.002,-0.0159 -0.002,-0.03354 -0.0212,-0.05064 -0.0124,-0.011 -0.0205,-0.01307 -0.0315,-0.01757 -0.0111,-0.004 -0.0248,-0.009 -0.0408,-0.01395 -0.0321,-0.0101 -0.0744,-0.02154 -0.12712,-0.03514 -0.10555,-0.027 -0.25037,-0.06174 -0.42168,-0.09974 -0.34262,-0.076 -0.79024,-0.168698 -1.23817,-0.257348 -0.44792,-0.0887 -0.89581,-0.173234 -1.23662,-0.232544 -0.17041,-0.0297 -0.31535,-0.05216 -0.41961,-0.06666 -0.0521,-0.007 -0.0935,-0.013 -0.12506,-0.0155 -0.0158,-0.001 -0.028,-0.0021 -0.0393,-0.0021 -0.006,9e-5 -0.0119,0.0011 -0.0176,0.0021 -0.003,5.29e-4 -0.006,0.0011 -0.01,0.0021 -0.002,5.3e-4 -0.004,0.0011 -0.006,0.0021 -0.002,7.94e-4 -0.006,0.0041 -0.006,0.0041 -2.6e-4,1.6e-4 -0.007,0.0036 -0.008,0.0036 -2.7e-4,2.65e-4 -0.003,0.0052 -0.004,0.0062 -0.002,0.002 -0.005,0.0042 -0.006,0.0062 -0.003,0.004 -0.005,0.009 -0.008,0.01344 -0.005,0.009 -0.0109,0.01877 -0.0176,0.03307 -0.0134,0.0285 -0.0299,0.0693 -0.0506,0.119373 -0.0415,0.10005 -0.0981,0.240918 -0.16433,0.413928 -0.13252,0.34602 -0.30565,0.817809 -0.4899,1.332219 -0.28426,0.79365 -0.45995,1.263887 -0.58239,1.536857 -0.0612,0.13649 -0.11017,0.222505 -0.15038,0.275435 -0.0402,0.0529 -0.0675,0.07043 -0.0977,0.07803 -0.13259,0.0333 -0.2345,0.02643 -0.29662,-0.0083 -0.0621,-0.0343 -0.0943,-0.0941 -0.092,-0.19327 5.2e-4,-0.0257 0.0237,-0.126996 0.0646,-0.264066 0.0409,-0.13707 0.0996,-0.315335 0.17002,-0.521415 0.14091,-0.41216 0.33035,-0.9326 0.52348,-1.44539 0.19314,-0.5128 0.39075,-1.018295 0.5488,-1.399915 0.079,-0.1908 0.14742,-0.351068 0.20102,-0.465088 0.0268,-0.057 0.0504,-0.101328 0.0682,-0.132808 0.009,-0.0157 0.0161,-0.02951 0.0217,-0.03721 0.006,-0.008 0.0116,-0.0097 0.004,-0.0057 -0.002,10e-4 0.016,-0.0052 0.045,-0.0062 z m 0.57671,1.512052 c -0.10641,0.004 -0.21099,0.06539 -0.27337,0.181901 -0.10337,0.19314 -0.0637,0.389206 0.0548,0.503845 0.11848,0.11463 0.31467,0.145826 0.49816,0.02946 0.0468,-0.0297 0.0732,-0.083 0.0899,-0.144694 0.0167,-0.0618 0.0219,-0.134563 0.0134,-0.207223 -0.0267,-0.22831 -0.20547,-0.370205 -0.38294,-0.363285 z m 0.004,0.0863 c 0.13049,-0.005 0.27294,0.09739 0.29507,0.286804 0.007,0.0619 0.002,0.12428 -0.0119,0.17415 -0.0135,0.0499 -0.0362,0.0851 -0.0527,0.0956 -0.15575,0.0987 -0.30296,0.07083 -0.39431,-0.01757 -0.0914,-0.0884 -0.12744,-0.239846 -0.0393,-0.404627 0.0499,-0.0933 0.12473,-0.131268 0.20309,-0.134358 z m 0.93379,0.214457 v 0.01189 c -0.0668,0.004 -0.13074,0.01052 -0.17415,0.04082 -0.0546,0.0381 -0.0899,0.0942 -0.12092,0.162264 -0.0377,0.0827 -0.0566,0.159474 -0.047,0.232544 0.01,0.0731 0.0491,0.139744 0.11523,0.197404 0.13229,0.11533 0.3714,0.208881 0.75603,0.324011 0.39577,0.11847 0.638,0.179092 0.8046,0.183451 0.0833,0.002 0.14966,-0.01013 0.20309,-0.04082 0.0534,-0.0307 0.0903,-0.07771 0.12092,-0.134875 0.0455,-0.085 0.0714,-0.162092 0.0724,-0.236162 0.001,-0.0741 -0.0248,-0.143998 -0.078,-0.203088 -0.10638,-0.11819 -0.30867,-0.204767 -0.63098,-0.300757 -0.50568,-0.15059 -0.79056,-0.228241 -0.97617,-0.234611 z m 0.0408,0.0863 c 0.16409,0.006 0.45016,0.0817 0.95498,0.232027 0.31768,0.0946 0.50851,0.183015 0.59169,0.275435 0.0416,0.0462 0.0596,0.09059 0.0589,0.144694 -7.9e-4,0.0541 -0.0208,0.119364 -0.0625,0.197404 -0.0263,0.0491 -0.0537,0.0825 -0.0899,0.103353 -0.0362,0.0208 -0.0845,0.03136 -0.15813,0.02946 -0.14722,-0.004 -0.38916,-0.0639 -0.78342,-0.181901 -0.38142,-0.114171 -0.61199,-0.210172 -0.72243,-0.306442 -0.0552,-0.0481 -0.0812,-0.09379 -0.0879,-0.144694 -0.007,-0.0509 0.007,-0.111028 0.0408,-0.185518 0.0285,-0.0625 0.0561,-0.102044 0.092,-0.127124 0.0359,-0.0251 0.0838,-0.03959 0.16588,-0.03669 z m -1.3808,0.917773 -0.0465,0.0083 c -7.9e-4,1.3e-4 -0.002,-1.4e-4 -0.003,0 v 5.29e-4 c -0.0424,0.007 -0.0854,0.02278 -0.1266,0.04858 -0.16136,0.10162 -0.21534,0.278091 -0.17984,0.427881 0.0355,0.14979 0.16448,0.275435 0.3514,0.275435 0.10086,0 0.21653,-0.0587 0.28319,-0.139009 0.20765,-0.2502 -0.005,-0.611116 -0.27905,-0.612366 z m -0.0351,0.09198 c 0.21595,-0.034 0.42362,0.267407 0.25012,0.476457 -0.0456,0.0549 -0.1565,0.107487 -0.21911,0.107487 -0.14995,0 -0.24151,-0.0939 -0.26923,-0.21084 -0.0277,-0.11695 0.0124,-0.254964 0.14417,-0.337964 0.0315,-0.0195 0.0637,-0.03024 0.0941,-0.03514 z m 0.88264,0.177767 c -0.14641,0.0178 -0.26438,0.09089 -0.32815,0.191203 -0.0638,0.10032 -0.0718,0.229698 -0.002,0.342098 0.021,0.0338 0.0562,0.06223 0.1018,0.09353 0.0456,0.0312 0.10208,0.06407 0.16795,0.09767 0.13172,0.0671 0.29968,0.137748 0.47284,0.201538 0.17317,0.0638 0.35106,0.120337 0.50953,0.160197 0.15847,0.0399 0.29461,0.06303 0.3886,0.05633 0.0585,-0.004 0.10493,-0.009 0.1447,-0.01964 0.0398,-0.0106 0.0736,-0.02849 0.0977,-0.0584 0.0482,-0.0598 0.0506,-0.141862 0.0506,-0.277502 0,-0.0737 8.2e-4,-0.130601 -0.0119,-0.183451 -0.0127,-0.0528 -0.043,-0.100303 -0.0915,-0.138493 -0.0969,-0.0764 -0.2659,-0.132694 -0.60152,-0.250114 -0.18729,-0.0655 -0.37979,-0.123434 -0.54105,-0.162264 -0.16126,-0.0388 -0.28369,-0.06181 -0.3576,-0.05271 z m 0.01,0.08423 c 0.0385,-0.005 0.17018,0.01254 0.32814,0.05064 0.15795,0.038 0.34876,0.0956 0.5333,0.160197 0.33555,0.117401 0.50498,0.178402 0.57826,0.236162 0.0366,0.0289 0.0493,0.05398 0.0584,0.09198 0.009,0.0379 0.0119,0.09029 0.0119,0.163814 0,0.1332 -0.0105,0.198693 -0.0315,0.224792 -0.0105,0.013 -0.0254,0.02166 -0.0548,0.02946 -0.0294,0.008 -0.0719,0.01357 -0.12867,0.01757 -0.0728,0.005 -0.20661,-0.01588 -0.36122,-0.05478 -0.15461,-0.0389 -0.33162,-0.0952 -0.5023,-0.15813 -0.17069,-0.0629 -0.33514,-0.132514 -0.4625,-0.197404 -0.0637,-0.0325 -0.11915,-0.06388 -0.1602,-0.09198 -0.0411,-0.0281 -0.0681,-0.05461 -0.0765,-0.06821 -0.0536,-0.0864 -0.0464,-0.175831 0.002,-0.252181 0.0485,-0.0764 0.14156,-0.136828 0.26561,-0.151928 z m -1.40612,0.792716 c -0.12686,0.006 -0.25074,0.08149 -0.29869,0.232544 -0.0462,0.1456 -0.0378,0.271224 0.031,0.357084 0.0688,0.0859 0.18896,0.122217 0.34003,0.107487 0.10645,-0.0104 0.18263,-0.02825 0.23823,-0.07235 0.0556,-0.044 0.0814,-0.111117 0.0935,-0.196887 0.0186,-0.13164 -0.0316,-0.243797 -0.1111,-0.318327 -0.0796,-0.0745 -0.18736,-0.114064 -0.29301,-0.109554 z m 0.004,0.08423 c 0.0817,-0.003 0.17047,0.02965 0.23254,0.08785 0.0621,0.0581 0.0991,0.138603 0.0842,0.243913 -0.0108,0.0762 -0.0288,0.115917 -0.0625,0.142627 -0.0337,0.0267 -0.0928,0.04498 -0.19327,0.05478 -0.13403,0.0131 -0.21999,-0.01948 -0.26561,-0.07648 -0.0456,-0.057 -0.0587,-0.149553 -0.0176,-0.279053 0.0381,-0.12017 0.1243,-0.169312 0.2222,-0.173632 z m 0.83612,0.1757 -0.0176,0.02119 -0.15606,0.19172 c -0.0712,0.0879 -0.12126,0.163158 -0.14056,0.238228 -0.0193,0.0751 -2.9e-4,0.150037 0.0543,0.212907 0.10899,0.12574 0.34593,0.226651 0.76377,0.375171 0.40248,0.14305 0.63069,0.217701 0.7891,0.236161 0.15841,0.0185 0.25043,-0.0298 0.34003,-0.119372 0.0837,-0.0837 0.13839,-0.1632 0.15245,-0.24598 0.014,-0.0828 -0.0186,-0.163524 -0.0899,-0.234094 -0.14253,-0.14114 -0.43519,-0.266554 -0.91984,-0.424264 z m 0.0295,0.0956 0.71882,0.236161 c 0.48133,0.15663 0.77078,0.288247 0.88831,0.404627 0.0588,0.0582 0.0759,0.105547 0.0667,0.160197 -0.009,0.0547 -0.0516,0.121344 -0.1292,0.198954 -0.0825,0.0825 -0.13065,0.112001 -0.2713,0.0956 -0.14064,-0.0164 -0.36983,-0.0893 -0.77153,-0.232027 -0.41551,-0.14769 -0.64738,-0.256099 -0.72863,-0.349849 -0.0406,-0.0469 -0.0488,-0.0837 -0.0351,-0.136943 0.0137,-0.0532 0.057,-0.122596 0.12505,-0.206706 z"
       id="path1973"
       inkscape:connector-curvature="0" />
    <path
       style="opacity:1;fill:#ffffff;fill-opacity:1;stroke:none;stroke-width:0.03454778;stroke-miterlimit:4;stroke-dasharray:none;stroke-dashoffset:0;stroke-opacity:1"
       d="M 18.635075,33.225369 C 17.80595,33.124638 16.853378,32.76986 14.282054,31.604123 10.557386,29.915504 6.7146125,28.041649 5.9577139,27.544919 5.3247667,27.129534 4.7511441,26.089666 4.5109588,24.92223 4.3846041,24.308074 4.3580096,22.382927 4.4729143,22.168225 c 0.090496,-0.169093 0.2551702,-0.167946 0.9208604,0.0064 1.2585826,0.329654 8.9391033,3.475695 10.9636023,4.490834 l 0.658863,0.330372 0.189167,1.01376 c 0.120646,0.64655 0.26426,1.179372 0.396477,1.47097 0.706866,1.558961 1.932419,2.169314 3.560245,1.773083 1.87198,-0.455661 2.699695,-1.550602 4.435839,-5.867946 1.819273,-4.524063 4.320858,-11.806183 4.960825,-14.440974 0.0923,-0.380026 0.167867,-0.853477 0.167917,-1.0521147 C 30.726779,9.5850701 30.70155,9.514905 30.556715,9.4200073 30.260058,9.2256442 28.325622,8.7718025 24.542156,8.0089341 20.069491,7.1071012 17.331175,6.626265 16.667989,6.626265 h -0.380174 l -0.199664,0.3972995 c -0.287855,0.5727874 -1.144788,2.8283157 -2.667893,7.0221505 -1.897505,5.224735 -2.420853,6.494433 -2.838689,6.88697 -0.195497,0.18366 -0.779892,0.260022 -1.0856223,0.141856 C 9.1918843,20.957019 9.1350732,20.705977 9.2753852,20.099901 9.7367783,18.106918 13.828708,7.1716475 14.935443,4.973966 l 0.235317,-0.4672761 0.402067,0.027606 c 1.507321,0.1034943 6.910198,1.1135975 13.611979,2.5448479 3.17141,0.677295 4.124549,0.9436682 4.214391,1.1777929 0.118104,0.3077738 -1.781749,6.2008333 -4.051924,12.5684673 -1.795291,5.035624 -3.195295,8.28911 -4.260243,9.900429 -0.735972,1.113562 -1.686234,1.90168 -2.693646,2.234028 -0.671525,0.221537 -2.852203,0.375593 -3.758309,0.265508 z"
       id="path821"
       inkscape:connector-curvature="0"
       transform="matrix(0.26458333,0,0,0.26458333,-151.43855,17.705787)" />
    <path
       style="opacity:1;fill:#ffffff;fill-opacity:1;stroke:none;stroke-width:0.03454778;stroke-miterlimit:4;stroke-dasharray:none;stroke-dashoffset:0;stroke-opacity:1"
       d="M 20.915228,24.350976 C 19.79598,24.021887 18.107971,23.401058 17.32776,23.03155 c -0.716468,-0.339319 -1.042083,-0.595605 -1.041676,-0.819888 3.14e-4,-0.17364 0.200352,-0.511514 0.575282,-0.971684 0.154816,-0.190013 0.285421,-0.353097 0.290234,-0.362409 0.0048,-0.0093 0.935328,0.29376 2.067812,0.673494 2.617956,0.877829 3.630896,1.347257 3.946504,1.828936 0.09242,0.14105 0.09354,0.190981 0.0088,0.392699 -0.05341,0.127106 -0.240918,0.363248 -0.41669,0.524758 -0.293332,0.269532 -0.349514,0.29339 -0.683882,0.290405 -0.201918,-0.0018 -0.718472,-0.107388 -1.158895,-0.236885 z"
       id="path823"
       inkscape:connector-curvature="0"
       transform="matrix(0.26458333,0,0,0.26458333,-151.43855,17.705787)" />
    <path
       style="opacity:1;fill:#ffffff;fill-opacity:1;stroke:none;stroke-width:0.03454778;stroke-miterlimit:4;stroke-dasharray:none;stroke-dashoffset:0;stroke-opacity:1"
       d="m 13.289486,21.26951 c -0.153111,-0.120437 -0.182057,-0.197883 -0.182057,-0.4871 0,-0.793132 0.542529,-1.16696 1.224162,-0.843504 0.594964,0.282329 0.695851,1.206778 0.152373,1.396236 -0.378091,0.131803 -0.98594,0.0984 -1.194478,-0.06563 z"
       id="path825"
       inkscape:connector-curvature="0"
       transform="matrix(0.26458333,0,0,0.26458333,-151.43855,17.705787)" />
    <path
       style="opacity:1;fill:#ffffff;fill-opacity:1;stroke:none;stroke-width:0.03454778;stroke-miterlimit:4;stroke-dasharray:none;stroke-dashoffset:0;stroke-opacity:1"
       d="M 18.574805,33.222559 C 17.801229,33.122288 16.824446,32.758377 14.454793,31.687607 11.993392,30.575378 9.4887671,29.386491 7.6834271,28.473399 5.709743,27.475163 5.4404324,27.2647 5.0061551,26.38114 4.556596,25.46649 4.4564033,24.988332 4.4194636,23.581224 4.3791208,22.044486 4.394117,21.99803 4.9090486,22.064546 c 0.4807242,0.0621 1.4274998,0.390671 3.47568,1.206218 3.5614074,1.418084 6.6738344,2.742222 8.0030474,3.404782 l 0.620167,0.309128 0.185111,0.941434 c 0.10181,0.517789 0.222916,1.05972 0.269124,1.20429 0.268762,0.840878 0.948963,1.667902 1.644022,1.998888 1.090385,0.519238 2.903349,0.117265 3.881149,-0.860535 0.700465,-0.700466 1.289197,-1.741608 2.195403,-3.882462 1.31889,-3.115791 3.656393,-9.651492 4.818398,-13.472327 0.751504,-2.471046 0.882819,-3.2795161 0.566352,-3.4868731 C 29.955268,9.0259378 18.033151,6.626265 16.652375,6.626265 c -0.352861,0 -0.367828,0.00801 -0.500369,0.2678134 -0.323932,0.634959 -1.100248,2.6752086 -2.816386,7.4017946 -1.777492,4.895567 -2.337739,6.245707 -2.753929,6.636698 -0.128262,0.120495 -0.273922,0.167988 -0.5840166,0.190418 C 9.2409757,21.177724 9.0682318,20.896097 9.3011553,19.987445 9.8886513,17.695579 13.834093,7.1648346 14.898187,5.0484584 l 0.284139,-0.5651247 0.396285,0.039461 c 1.80402,0.1796409 5.483291,0.8567862 11.784622,2.1688813 4.159794,0.8661733 5.704132,1.2467798 5.976671,1.4729671 0.06456,0.053581 0.08183,0.1599783 0.0541,0.3333641 -0.20214,1.2641187 -3.467234,10.9520728 -5.300468,15.7271758 -1.172844,3.054954 -2.166754,5.214029 -2.967512,6.44634 -0.814119,1.252871 -1.925678,2.120746 -3.050248,2.381552 -0.249796,0.05793 -0.962906,0.136271 -1.584688,0.174087 -1.25485,0.07632 -1.292695,0.07623 -1.916286,-0.0046 z"
       id="path827"
       inkscape:connector-curvature="0"
       transform="matrix(0.26458333,0,0,0.26458333,-151.43855,17.705787)" />
    <path
       style="opacity:1;fill:#ffffff;fill-opacity:1;stroke:none;stroke-width:0.03454778;stroke-miterlimit:4;stroke-dasharray:none;stroke-dashoffset:0;stroke-opacity:1"
       d="m 15.409267,17.201326 c -0.282916,-0.172506 -0.3707,-0.343005 -0.378574,-0.735286 -0.01396,-0.695728 0.735876,-1.179316 1.277919,-0.824156 0.251175,0.164576 0.484039,0.671414 0.427257,0.929941 -0.06214,0.282942 -0.291596,0.555554 -0.563069,0.668983 -0.309767,0.129429 -0.502892,0.119442 -0.763533,-0.03948 z"
       id="path829"
       inkscape:connector-curvature="0"
       transform="matrix(0.26458333,0,0,0.26458333,-151.43855,17.705787)" />
    <path
       style="opacity:1;fill:#ffffff;fill-opacity:1;stroke:none;stroke-width:0.03454778;stroke-miterlimit:4;stroke-dasharray:none;stroke-dashoffset:0;stroke-opacity:1"
       d="m 23.113644,19.691027 c -1.257399,-0.273048 -2.847816,-0.84073 -3.978976,-1.420251 -0.692001,-0.354529 -0.789852,-0.424302 -0.909205,-0.648317 -0.206741,-0.388034 0.189864,-0.985983 0.719934,-1.085425 0.537506,-0.100837 1.866128,0.214851 3.797769,0.902371 1.382326,0.492005 1.748718,0.674619 1.842544,0.918348 0.08705,0.226137 0.05364,1.224063 -0.04427,1.321967 -0.138801,0.138802 -0.815984,0.144164 -1.427799,0.01131 z"
       id="path831"
       inkscape:connector-curvature="0"
       transform="matrix(0.26458333,0,0,0.26458333,-151.43855,17.705787)" />
    <path
       style="opacity:1;fill:#ffffff;fill-opacity:1;stroke:none;stroke-width:0.03454778;stroke-miterlimit:4;stroke-dasharray:none;stroke-dashoffset:0;stroke-opacity:1"
       d="m 25.579179,14.972737 c -0.228015,-0.02955 -0.872178,-0.178639 -1.431473,-0.331306 -2.813014,-0.767853 -3.993996,-1.336704 -3.991854,-1.922784 3.71e-4,-0.101591 0.0751,-0.344545 0.166056,-0.539899 0.278882,-0.598955 0.540529,-0.620971 2.269179,-0.190939 1.29109,0.321181 2.888364,0.820195 3.456545,1.07988 0.278667,0.127364 0.568162,0.324471 0.714566,0.486523 0.217631,0.240891 0.240714,0.301198 0.199461,0.521099 -0.0539,0.287281 -0.271795,0.740633 -0.391556,0.814649 -0.162254,0.100279 -0.584023,0.135511 -0.990924,0.08278 z"
       id="path833"
       inkscape:connector-curvature="0"
       transform="matrix(0.26458333,0,0,0.26458333,-151.43855,17.705787)" />
    <path
       style="opacity:1;fill:#ffffff;fill-opacity:1;stroke:none;stroke-width:0.03454778;stroke-miterlimit:4;stroke-dasharray:none;stroke-dashoffset:0;stroke-opacity:1"
       d="m 17.107598,12.395958 c -0.534469,-0.290499 -0.604002,-1.161404 -0.130529,-1.634877 0.153341,-0.153341 0.259874,-0.196369 0.486195,-0.196369 0.607813,0 1.040773,0.762518 0.830831,1.463239 -0.06348,0.211867 -0.136262,0.297387 -0.317587,0.373149 -0.295748,0.123571 -0.635803,0.121559 -0.86891,-0.0051 z"
       id="path835"
       inkscape:connector-curvature="0"
       transform="matrix(0.26458333,0,0,0.26458333,-151.43855,17.705787)" />
  </g>
</svg>
