<?xml version="1.0" encoding="UTF-8" standalone="no"?>
<!-- Created with Inkscape (http://www.inkscape.org/) -->

<svg
   xmlns:dc="http://purl.org/dc/elements/1.1/"
   xmlns:cc="http://creativecommons.org/ns#"
   xmlns:rdf="http://www.w3.org/1999/02/22-rdf-syntax-ns#"
   xmlns:svg="http://www.w3.org/2000/svg"
   xmlns="http://www.w3.org/2000/svg"
   xmlns:sodipodi="http://sodipodi.sourceforge.net/DTD/sodipodi-0.dtd"
   xmlns:inkscape="http://www.inkscape.org/namespaces/inkscape"
   width="10mm"
   height="10mm"
   viewBox="0 0 10 10"
   version="1.1"
   id="svg1418"
   inkscape:export-filename="C:\xampp\htdocs\salesmart\resources\images\salesmart\history-icon.png"
   inkscape:export-xdpi="508"
   inkscape:export-ydpi="508"
   inkscape:version="0.92.3 (2405546, 2018-03-11)"
   sodipodi:docname="history-icon.svg">
  <defs
     id="defs1412" />
  <sodipodi:namedview
     id="base"
     pagecolor="#ffffff"
     bordercolor="#666666"
     borderopacity="1.0"
     inkscape:pageopacity="0.0"
     inkscape:pageshadow="2"
     inkscape:zoom="16.757746"
     inkscape:cx="10.911643"
     inkscape:cy="16.519756"
     inkscape:document-units="mm"
     inkscape:current-layer="layer1"
     showgrid="false"
     inkscape:window-width="1366"
     inkscape:window-height="716"
     inkscape:window-x="-8"
     inkscape:window-y="-8"
     inkscape:window-maximized="1" />
  <metadata
     id="metadata1415">
    <rdf:RDF>
      <cc:Work
         rdf:about="">
        <dc:format>image/svg+xml</dc:format>
        <dc:type
           rdf:resource="http://purl.org/dc/dcmitype/StillImage" />
        <dc:title />
      </cc:Work>
    </rdf:RDF>
  </metadata>
  <g
     inkscape:label="Layer 1"
     inkscape:groupmode="layer"
     id="layer1"
     transform="translate(151.43855,-17.705787)">
    <path
       style="color:#000000;font-style:normal;font-variant:normal;font-weight:normal;font-stretch:normal;font-size:medium;line-height:normal;font-family:sans-serif;font-variant-ligatures:normal;font-variant-position:normal;font-variant-caps:normal;font-variant-numeric:normal;font-variant-alternates:normal;font-feature-settings:normal;text-indent:0;text-align:start;text-decoration:none;text-decoration-line:none;text-decoration-style:solid;text-decoration-color:#000000;letter-spacing:normal;word-spacing:normal;text-transform:none;writing-mode:lr-tb;direction:ltr;text-orientation:mixed;dominant-baseline:auto;baseline-shift:baseline;text-anchor:start;white-space:normal;shape-padding:0;clip-rule:nonzero;display:inline;overflow:visible;visibility:visible;opacity:1;isolation:auto;mix-blend-mode:normal;color-interpolation:sRGB;color-interpolation-filters:linearRGB;solid-color:#000000;solid-opacity:1;vector-effect:none;fill:none;fill-opacity:1;fill-rule:nonzero;stroke:#1d69b5;stroke-width:0.08466666;stroke-linecap:butt;stroke-linejoin:miter;stroke-miterlimit:4;stroke-dasharray:none;stroke-dashoffset:0;stroke-opacity:1;color-rendering:auto;image-rendering:auto;shape-rendering:auto;text-rendering:auto;enable-background:accumulate"
       d="m -147.64354,18.382819 c -0.0103,-0.002 -0.0211,-8.99e-4 -0.03,0.0031 v -0.0021 c -0.0713,0.0295 -0.26204,0.135593 -0.52141,0.285253 -0.25936,0.14967 -0.58168,0.340557 -0.89659,0.529167 -0.31491,0.18862 -0.62087,0.375138 -0.84956,0.517798 -0.11435,0.0713 -0.20888,0.13155 -0.27543,0.1757 -0.0333,0.0221 -0.0593,0.04098 -0.078,0.05478 -0.009,0.007 -0.0175,0.01187 -0.0238,0.01757 l -0.0103,0.01033 c -0.002,0.002 -0.005,0.0085 -0.006,0.0098 -1.4e-4,2.6e-4 -0.004,0.0083 -0.004,0.0083 -7e-5,2.2e-4 -0.002,0.01375 -0.002,0.01395 1e-5,5.29e-4 0.002,0.01087 0.002,0.01137 1.5e-4,5.29e-4 0.003,0.0048 0.004,0.0078 0.002,0.005 0.003,0.009 0.006,0.01137 0.005,0.006 0.0105,0.01269 0.016,0.01809 0.0109,0.0107 0.0234,0.02164 0.0408,0.03514 0.0349,0.0269 0.0847,0.05972 0.1447,0.09922 0.12001,0.0789 0.28377,0.179487 0.46457,0.283187 0.35993,0.20644 0.92799,0.54204 1.26194,0.74259 0.16783,0.10079 0.33122,0.191226 0.45888,0.257866 0.0638,0.0333 0.1192,0.061 0.16227,0.0801 0.0215,0.01 0.0385,0.01569 0.0543,0.02119 0.0158,0.005 0.0271,0.01033 0.045,0.01033 0.0362,0 0.0581,-0.02576 0.0723,-0.05116 0.0142,-0.0253 0.0244,-0.05594 0.0331,-0.09353 0.0173,-0.075 0.0274,-0.175788 0.0274,-0.289388 v -0.347265 l 0.79685,0.03669 c 0.64449,0.031 1.13062,0.147997 1.50792,0.371037 0.37731,0.22306 0.64746,0.554714 0.85938,1.027844 0.2209,0.49314 0.22084,1.249043 0,1.742013 -0.19078,0.42568 -0.68083,0.931811 -1.10329,1.138431 -1.06912,0.31221 -1.76429,0.210327 -2.54868,-0.485758 -0.34252,-0.36431 -0.52038,-0.725812 -0.58395,-1.189591 l -0.0563,-0.42013 h -0.85731 -0.86765 l 0.0744,0.6196 c 0.28666,2.407549 2.85546,3.975376 5.19917,3.175516 1.25227,-0.42775 2.18533,-1.445892 2.52749,-2.759522 0.30763,-1.946395 -0.41662,-3.606224 -2.00143,-4.44779 -0.69308,-0.36073 -1.25218,-0.482141 -2.2288,-0.482141 h -0.71675 V 18.78386 c 0,-0.10874 -0.008,-0.203898 -0.0212,-0.273368 -0.007,-0.0347 -0.0139,-0.0634 -0.0253,-0.0863 -0.006,-0.0115 -0.0108,-0.0212 -0.0238,-0.031 -0.006,-0.005 -0.016,-0.009 -0.0264,-0.01034 z m -0.0207,0.0925 5.3e-4,5.16e-4 c 0.004,0.012 0.009,0.02468 0.0129,0.04858 0.0116,0.0612 0.0196,0.153185 0.0196,0.257865 v 0.432015 h 0.80047 c 0.9698,0 1.50602,0.114506 2.18953,0.470256 0.60495,0.31487 1.04956,0.70863 1.43557,1.26969 0.60499,1.005089 0.80749,1.968919 0.52348,3.084049 -0.33541,1.28771 -1.24712,2.28042 -2.47272,2.69906 -2.29381,0.782831 -4.80741,-0.752416 -5.08755,-3.105236 l -0.0625,-0.523482 h 0.77153 0.7829 l 0.0491,0.345715 c 0.0657,0.47908 0.25176,0.86189 0.60358,1.2361 0.78152,0.697217 1.60369,0.849055 2.64842,0.504879 0.44764,-0.21893 0.94172,-0.728193 1.14411,-1.179773 0.23378,-0.52186 0.23383,-1.290789 0,-1.812809 -0.21693,-0.48432 -0.50078,-0.833315 -0.89452,-1.066085 -0.39375,-0.23277 -0.89418,-0.349425 -1.54667,-0.380855 l -0.8847,-0.04289 v 0.437183 c 0,0.10862 -0.0102,0.204231 -0.0253,0.269751 -0.008,0.0328 -0.0162,0.05895 -0.0238,0.07235 -0.003,0.005 -0.004,0.0047 -0.005,0.0057 -0.002,-2.19e-4 -0.002,1.6e-4 -0.0103,-0.0031 -0.0123,-0.004 -0.0305,-0.01219 -0.0506,-0.02119 -0.0404,-0.0179 -0.0932,-0.04368 -0.15606,-0.07648 -0.12563,-0.0656 -0.28668,-0.157865 -0.4532,-0.257866 -0.33477,-0.201037 -0.9033,-0.533105 -1.26401,-0.740004 -0.17953,-0.10296 -0.34304,-0.203589 -0.46096,-0.28112 -0.059,-0.0388 -0.10659,-0.071 -0.13849,-0.0956 -0.008,-0.006 -0.0118,-0.0091 -0.0176,-0.01395 0.0163,-0.0118 0.038,-0.02803 0.0667,-0.04703 0.0653,-0.0433 0.15938,-0.102523 0.27337,-0.173632 0.22796,-0.142201 0.53497,-0.329379 0.84956,-0.517798 0.31459,-0.188431 0.63575,-0.37778 0.89452,-0.5271 0.24674,-0.142381 0.42645,-0.239675 0.48834,-0.267684 z"
       id="path1978"
       inkscape:connector-curvature="0"
       sodipodi:nodetypes="ccccccccccccccccccccccccsccscccccccccccccccscsccccccccscsccccccccccccccccsccccccccccccccccc" />
    <path
       style="opacity:1;fill:#ffffff;fill-opacity:1;stroke:none;stroke-width:0.02983695;stroke-miterlimit:4;stroke-dasharray:none;stroke-dashoffset:0;stroke-opacity:1"
       d="M 17.965098,34.691317 C 15.671909,34.433227 14.238128,34.02885 12.467271,33.140731 8.8244398,31.313783 6.1299427,28.103926 5.106525,24.37214 4.8835508,23.559088 4.7611645,22.878706 4.6289402,21.717106 4.5785048,21.274027 4.5247613,20.837662 4.5095102,20.747405 l -0.027729,-0.164103 h 2.7656365 2.7656363 l 0.03989,0.372962 c 0.23603,2.206563 0.834567,3.688578 2.093269,5.183059 0.54574,0.647966 1.810008,1.598894 2.758344,2.074707 1.341831,0.673243 3.008078,1.028258 4.403199,0.938156 1.354821,-0.0875 3.033694,-0.470355 3.726206,-0.849738 1.580681,-0.865954 3.265811,-2.655717 4.040767,-4.291666 1.026088,-2.166091 0.956606,-5.326331 -0.166218,-7.560105 -0.961408,-1.912652 -2.247197,-3.220242 -3.938513,-4.005294 -1.625455,-0.754481 -3.093334,-1.013843 -6.616099,-1.169009 -0.771286,-0.03397 -1.57017,-0.07597 -1.775299,-0.09332 l -0.372962,-0.03155 -0.0026,1.180221 c -0.0024,1.079724 -0.04625,1.636841 -0.135961,1.726554 -0.04819,0.04819 -1.091888,-0.51747 -2.603389,-1.410977 C 10.756372,12.229176 9.2914969,11.370781 8.2084156,10.739757 6.2728582,9.6120634 4.8965144,8.7676909 4.8965144,8.7079401 c 0,-0.1038903 6.9064866,-4.2598841 8.6709426,-5.2177592 0.289001,-0.1568906 0.544107,-0.2666581 0.566902,-0.2439279 0.0228,0.02273 0.05001,0.6271634 0.06048,1.3431846 l 0.01903,1.3018569 2.845317,0.029719 c 3.041698,0.03177 3.601598,0.074179 4.944808,0.3745407 2.644801,0.5914155 5.548015,2.2169629 7.358834,4.1203068 1.033366,1.086166 1.640199,1.949043 2.324245,3.304924 1.201546,2.381645 1.673895,4.236858 1.673895,6.574444 0,5.496217 -3.123181,10.568828 -7.966465,12.938982 -1.417552,0.693706 -2.776088,1.121126 -4.266684,1.342376 -0.644569,0.09567 -2.67696,0.1694 -3.162716,0.11473 z"
       id="path2625"
       inkscape:connector-curvature="0"
       transform="matrix(0.26458333,0,0,0.26458333,-151.43855,17.705787)" />
  </g>
</svg>
