<?xml version="1.0" encoding="UTF-8" standalone="no"?>
<!-- Created with Inkscape (http://www.inkscape.org/) -->

<svg
   xmlns:dc="http://purl.org/dc/elements/1.1/"
   xmlns:cc="http://creativecommons.org/ns#"
   xmlns:rdf="http://www.w3.org/1999/02/22-rdf-syntax-ns#"
   xmlns:svg="http://www.w3.org/2000/svg"
   xmlns="http://www.w3.org/2000/svg"
   xmlns:sodipodi="http://sodipodi.sourceforge.net/DTD/sodipodi-0.dtd"
   xmlns:inkscape="http://www.inkscape.org/namespaces/inkscape"
   width="10mm"
   height="10mm"
   viewBox="0 0 10 10"
   version="1.1"
   id="svg1418"
   inkscape:export-filename="C:\xampp\htdocs\salesmart\resources\images\salesmart\home-icon.png"
   inkscape:export-xdpi="508"
   inkscape:export-ydpi="508"
   inkscape:version="0.92.3 (2405546, 2018-03-11)"
   sodipodi:docname="home-icon.svg">
  <defs
     id="defs1412" />
  <sodipodi:namedview
     id="base"
     pagecolor="#ffffff"
     bordercolor="#666666"
     borderopacity="1.0"
     inkscape:pageopacity="0.0"
     inkscape:pageshadow="2"
     inkscape:zoom="11.849516"
     inkscape:cx="7.6368671"
     inkscape:cy="16.480811"
     inkscape:document-units="mm"
     inkscape:current-layer="layer1"
     showgrid="false"
     inkscape:window-width="1366"
     inkscape:window-height="716"
     inkscape:window-x="-8"
     inkscape:window-y="-8"
     inkscape:window-maximized="1" />
  <metadata
     id="metadata1415">
    <rdf:RDF>
      <cc:Work
         rdf:about="">
        <dc:format>image/svg+xml</dc:format>
        <dc:type
           rdf:resource="http://purl.org/dc/dcmitype/StillImage" />
        <dc:title />
      </cc:Work>
    </rdf:RDF>
  </metadata>
  <g
     inkscape:label="Layer 1"
     inkscape:groupmode="layer"
     id="layer1"
     transform="translate(151.43855,-17.705787)">
    <path
       style="color:#000000;font-style:normal;font-variant:normal;font-weight:normal;font-stretch:normal;font-size:medium;line-height:normal;font-family:sans-serif;font-variant-ligatures:normal;font-variant-position:normal;font-variant-caps:normal;font-variant-numeric:normal;font-variant-alternates:normal;font-feature-settings:normal;text-indent:0;text-align:start;text-decoration:none;text-decoration-line:none;text-decoration-style:solid;text-decoration-color:#000000;letter-spacing:normal;word-spacing:normal;text-transform:none;writing-mode:lr-tb;direction:ltr;text-orientation:mixed;dominant-baseline:auto;baseline-shift:baseline;text-anchor:start;white-space:normal;shape-padding:0;clip-rule:nonzero;display:inline;overflow:visible;visibility:visible;opacity:1;isolation:auto;mix-blend-mode:normal;color-interpolation:sRGB;color-interpolation-filters:linearRGB;solid-color:#000000;solid-opacity:1;vector-effect:none;fill:#ffffff;fill-opacity:1;fill-rule:nonzero;stroke:#1d69b5;stroke-width:0.08466666;stroke-linecap:butt;stroke-linejoin:miter;stroke-miterlimit:4;stroke-dasharray:none;stroke-dashoffset:0;stroke-opacity:1;color-rendering:auto;image-rendering:auto;shape-rendering:auto;text-rendering:auto;enable-background:accumulate"
       d="m -143.79972,18.387842 c -0.18436,0 -0.34975,0.0106 -0.47852,0.0289 -0.0644,0.009 -0.11981,0.0198 -0.16433,0.0331 -0.0445,0.0133 -0.0785,0.0268 -0.10388,0.0522 -0.0256,0.0256 -0.0389,0.0598 -0.0522,0.10491 -0.0133,0.0451 -0.024,0.10125 -0.0331,0.16691 -0.0181,0.13133 -0.0284,0.30122 -0.0284,0.49248 v 0.53227 l -0.632,-0.61599 c -0.35419,-0.34573 -0.61279,-0.56438 -0.82682,-0.68161 -0.21404,-0.11723 -0.39021,-0.13033 -0.55242,-0.0563 -0.0266,0.0121 -0.052,0.0332 -0.0961,0.0692 -0.0441,0.0359 -0.10143,0.0855 -0.17053,0.14624 -0.13822,0.12151 -0.32297,0.289079 -0.53847,0.48783 -0.43101,0.3975 -0.98499,0.91899 -1.53169,1.440739 -0.5467,0.52175 -1.08603,1.04358 -1.48932,1.44229 -0.20164,0.19935 -0.36933,0.3679 -0.48679,0.49041 -0.0587,0.0613 -0.10484,0.11095 -0.13694,0.14779 -0.0161,0.0184 -0.0284,0.0334 -0.0377,0.046 -0.005,0.006 -0.008,0.012 -0.0119,0.0181 -0.003,0.006 -0.009,0.0102 -0.009,0.0289 0,0.0627 0.0385,0.12649 0.0909,0.206711 0.0525,0.0802 0.12212,0.17022 0.19585,0.25476 0.0737,0.0845 0.15101,0.16337 0.21859,0.22066 0.0338,0.0286 0.0651,0.0518 0.094,0.0682 0.0289,0.0164 0.0554,0.0303 0.0904,0.0222 0.0188,-0.004 0.0232,-0.0102 0.0341,-0.0176 0.0109,-0.007 0.0233,-0.0169 0.0388,-0.0289 1.45266,-1.331909 2.81587,-2.606719 4.02396,-3.76476 l 0.75241,0.73484 c 1.08157,1.05609 1.88378,1.82672 2.42983,2.33371 0.27302,0.2535 0.4815,0.44106 0.62993,0.56586 0.0742,0.0624 0.1336,0.10867 0.17881,0.14056 0.0226,0.0159 0.0416,0.0282 0.0584,0.0372 0.0168,0.009 0.0293,0.0165 0.0517,0.0165 0.0319,0 0.0593,-0.0133 0.0879,-0.0315 0.0285,-0.0182 0.0583,-0.0428 0.0889,-0.0724 0.0613,-0.0591 0.12688,-0.13792 0.1881,-0.22324 0.0612,-0.0853 0.11781,-0.17718 0.15968,-0.26148 0.0419,-0.0843 0.0703,-0.159189 0.0703,-0.223759 0,-0.0228 -0.008,-0.0395 -0.0176,-0.0589 -0.01,-0.0194 -0.0234,-0.0403 -0.0403,-0.0641 -0.0338,-0.0476 -0.0813,-0.10556 -0.13953,-0.170529 -0.1165,-0.129951 -0.276,-0.288662 -0.45165,-0.446492 l -0.62064,-0.558098 v -1.332741 c 0,-0.38558 -0.01,-0.74183 -0.0253,-1.01389 -0.008,-0.13603 -0.0172,-0.25073 -0.0279,-0.33848 -0.0108,-0.0877 -0.0187,-0.14349 -0.0398,-0.18294 -0.0406,-0.076 -0.1023,-0.129609 -0.21135,-0.15503 -0.10906,-0.0254 -0.26724,-0.031 -0.52865,-0.031 z m 0,0.0848 c 0.26006,0 0.41613,0.007 0.50953,0.0284 0.0934,0.0218 0.1224,0.0502 0.15606,0.11317 0.004,0.007 0.0196,0.0682 0.03,0.15296 0.0104,0.0848 0.0196,0.19844 0.0274,0.33332 0.0157,0.26975 0.0253,0.62454 0.0253,1.00872 v 1.36994 l 0.64854,0.58395 c 0.1736,0.15597 0.33172,0.31342 0.44545,0.44028 0.0569,0.0634 0.1026,0.11946 0.13333,0.16278 0.0154,0.0217 0.027,0.04 0.0341,0.0537 0.007,0.0138 0.008,0.0239 0.008,0.0202 0,0.0359 -0.0223,0.10713 -0.0615,0.18603 -0.0392,0.0789 -0.0936,0.16754 -0.15245,0.2496 -0.0589,0.0821 -0.12245,0.15801 -0.17828,0.21187 -0.0279,0.0269 -0.054,0.0483 -0.0754,0.062 -0.0214,0.0137 -0.0383,0.0181 -0.0424,0.0181 0.008,0 -1.1e-4,-1.3e-4 -0.0119,-0.006 -0.0118,-0.006 -0.0288,-0.0173 -0.0496,-0.032 -0.0417,-0.0294 -0.0994,-0.0749 -0.1726,-0.13642 -0.1464,-0.123091 -0.35486,-0.309751 -0.62735,-0.562761 -0.54499,-0.50602 -1.34695,-1.27684 -2.42828,-2.33268 l -0.81028,-0.79168 c -1.42084,1.37627 -2.64749,2.56121 -3.95842,3.71685 -0.0496,0.0427 -0.0898,0.076 -0.11885,0.0987 -0.0145,0.0114 -0.026,0.0203 -0.0341,0.0258 -0.008,0.006 -0.0175,0.007 -0.006,0.005 0.007,-0.002 -0.008,-8.2e-4 -0.0289,-0.0129 -0.0214,-0.0121 -0.0498,-0.0329 -0.0811,-0.0594 -0.0626,-0.053 -0.13771,-0.129279 -0.20929,-0.211359 -0.0716,-0.0821 -0.13969,-0.1704 -0.18914,-0.24598 -0.0477,-0.0729 -0.0726,-0.13626 -0.0744,-0.15451 6.6e-4,-9.26e-4 7.2e-4,-0.001 0.002,-0.002 0.6985,-0.74047 1.47121,-1.476221 2.14147,-2.116131 0.54643,-0.52149 1.0997,-1.04272 1.53014,-1.439699 0.21522,-0.19849 0.39962,-0.36557 0.53692,-0.48628 0.0687,-0.0603 0.12578,-0.10938 0.16846,-0.14417 0.0427,-0.0348 0.0764,-0.0568 0.0775,-0.0574 0.13925,-0.0635 0.27634,-0.0564 0.47646,0.0532 0.20012,0.10961 0.45658,0.32444 0.80874,0.66818 l 0.77566,0.756019 v -0.733279 c 0,-0.18826 0.0101,-0.35538 0.0274,-0.48111 0.009,-0.0629 0.019,-0.11503 0.0305,-0.154 0.0114,-0.039 0.0262,-0.0644 0.031,-0.0692 0.005,-0.005 0.0298,-0.0196 0.0682,-0.031 0.0384,-0.0115 0.0904,-0.0217 0.15193,-0.0305 0.12313,-0.0175 0.28548,-0.0279 0.46664,-0.0279 z m -2.62826,1.59318 c -1.75885,1.824 -2.47138,2.48592 -3.37035,3.40238 -0.0268,0.24095 -0.0269,0.66103 -0.0269,1.50171 0,0.50001 0.009,0.93801 0.0243,1.26401 0.008,0.163 0.0176,0.29831 0.0284,0.39946 0.005,0.0506 0.0108,0.0926 0.017,0.12609 0.006,0.0335 0.0119,0.0572 0.0233,0.0785 0.0219,0.0409 0.0507,0.0791 0.0982,0.10593 0.0475,0.0268 0.11007,0.0429 0.20412,0.0543 0.1881,0.0228 0.50617,0.0258 1.08934,0.0258 0.34901,0 0.66501,-0.007 0.894,-0.0186 0.11449,-0.006 0.20732,-0.0128 0.27233,-0.0207 0.0325,-0.004 0.0578,-0.008 0.0775,-0.0129 0.01,-0.002 0.0183,-0.005 0.0279,-0.01 0.005,-0.003 0.0102,-0.006 0.0165,-0.0129 0.006,-0.007 0.0132,-0.0227 0.0109,-0.0377 6.9e-4,0.004 -9.5e-4,-0.0116 -0.002,-0.0315 -5e-4,-0.0199 -7.1e-4,-0.0479 -0.001,-0.0822 -6.8e-4,-0.0686 -0.001,-0.16402 -0.001,-0.27905 0,-0.230071 0.001,-0.53854 0.004,-0.87023 l 0.009,-1.16427 h 0.63563 0.6351 v 1.22731 1.31258 h 1.25935 c 0.51441,0 0.82356,-0.005 1.0201,-0.0258 0.0983,-0.0103 0.16847,-0.0247 0.22324,-0.0455 0.0548,-0.0207 0.0942,-0.0496 0.12299,-0.0842 0.0302,-0.0363 0.0485,-0.0887 0.0651,-0.16691 0.0166,-0.0782 0.0301,-0.18227 0.0413,-0.32143 0.0226,-0.27831 0.0367,-0.69547 0.047,-1.30844 l 0.0274,-1.64745 c -0.44832,-0.50396 -0.95158,-1.0395 -1.04904,-1.12054 -0.2667,-0.22704 -0.62334,-0.5474 -1.00511,-0.90589 z m 0.001,0.11679 1.36064,1.27744 c 0.3826,0.35927 0.73994,0.6801 1.0082,0.90847 0.77266,0.71507 -0.0822,-0.11674 1.01919,1.08831 l -0.0274,1.61437 c -0.0103,0.61232 -0.0242,1.02792 -0.0465,1.30225 -0.0111,0.13716 -0.0245,0.23893 -0.0398,0.31109 -0.0153,0.0722 -0.0341,0.11458 -0.0475,0.13074 -0.0203,0.0244 -0.044,0.0423 -0.0879,0.0589 -0.0439,0.0166 -0.10767,0.0304 -0.20206,0.0403 -0.18875,0.0198 -0.4975,0.0253 -1.0113,0.0253 h -1.17461 v -1.227829 -1.31207 h -0.71986 -0.71933 l -0.0103,1.24799 c -0.003,0.33189 -0.004,0.64086 -0.004,0.87127 0,0.1152 3.7e-4,0.21096 0.001,0.28008 3.4e-4,0.0346 9.5e-4,0.0625 0.002,0.0832 1.1e-4,0.004 4.5e-4,0.006 5.3e-4,0.009 -0.0136,0.003 -0.0315,0.006 -0.0579,0.009 -0.0613,0.007 -0.15273,0.0144 -0.26614,0.0202 -0.22681,0.0115 -0.54201,0.0186 -0.88986,0.0186 -0.58285,0 -0.90156,-0.004 -1.07901,-0.0253 -0.0887,-0.0107 -0.1413,-0.0259 -0.17312,-0.0439 -0.0318,-0.018 -0.0467,-0.0379 -0.0651,-0.0724 -0.002,-0.003 -0.009,-0.0237 -0.0145,-0.0537 -0.006,-0.0301 -0.0113,-0.0707 -0.0165,-0.11989 -0.0105,-0.0984 -0.0197,-0.2318 -0.0274,-0.39378 -0.0154,-0.32394 -0.0243,-0.76138 -0.0243,-1.26038 0,-0.84067 2.1e-4,-1.26247 0.0258,-1.49242 z"
       id="path1396"
       inkscape:connector-curvature="0"
       sodipodi:nodetypes="ccscccsccsccccscccccscccscccccccccsscccscscccscccccccccccsccccccsccsccscscccccccsccccccccccccscccccccccscccccssccccccccsccccccsccccccccccccccccccsssccccccscccccsccccccscc" />
    <path
       style="opacity:1;fill:#ffffff;fill-opacity:0.5929648;stroke:none;stroke-width:0.16878329;stroke-miterlimit:4;stroke-dasharray:2.02539945, 0.16878329;stroke-dashoffset:0;stroke-opacity:1"
       d="M 2.8977962,20.964966 C 2.3027628,20.37576 1.5775478,19.420041 1.5775478,19.225089 c 0,-0.349305 13.0090872,-12.8736101 16.0947932,-15.495023 0.925306,-0.7860796 1.407196,-0.7887314 2.576011,-0.014176 0.813048,0.5387937 1.332768,1.0018151 3.747772,3.3389061 1.120898,1.0847357 2.06081,1.9722467 2.088693,1.9722467 0.02788,0 0.05187,-0.9209237 0.0533,-2.0464971 0.0023,-1.8316684 0.0758,-3.0212576 0.213357,-3.4546605 0.09009,-0.2838512 0.657165,-0.3621528 2.629856,-0.363131 1.81063,-8.979e-4 1.881616,0.00537 2.057946,0.1816462 0.111087,0.1110539 0.211189,0.3590004 0.255531,0.6329373 0.117338,0.7248754 0.238246,4.5265885 0.241119,7.5814543 l 0.0027,2.827119 1.731587,1.561246 c 0.952373,0.858685 2.017491,1.884043 2.366928,2.278574 0.576096,0.650436 0.631327,0.743599 0.592278,0.999041 -0.05282,0.345541 -0.687993,1.380749 -1.181928,1.926318 -0.330077,0.364581 -0.384756,0.394621 -0.566734,0.311357 C 33.831276,21.165294 29.161392,16.764884 20.050065,7.8645076 L 19.07031,6.9074368 17.349532,8.5719557 C 11.602141,14.131445 5.8159585,19.537167 3.8450488,21.188476 l -0.3908354,0.327458 z"
       id="path816"
       inkscape:connector-curvature="0"
       transform="matrix(0.26458333,0,0,0.26458333,-151.43855,17.705787)" />
    <path
       style="opacity:1;fill:#ffffff;fill-opacity:0.5929648;stroke:none;stroke-width:0.16878329;stroke-miterlimit:4;stroke-dasharray:2.02539945, 0.16878329;stroke-dashoffset:0;stroke-opacity:1"
       d="M 7.6248958,34.596974 C 7.3537439,34.562328 7.0772791,34.479367 7.0105296,34.412618 6.7527726,34.154861 6.6910772,32.80169 6.6871223,27.319304 l -0.00388,-5.379593 6.1181757,-6.118767 c 3.364996,-3.365323 6.139095,-6.1187682 6.164665,-6.1187682 0.02557,0 1.130001,1.0158642 2.454294,2.2574762 3.45312,3.237527 4.240329,3.963079 5.89662,5.434779 1.580572,1.404419 1.723368,1.545704 2.545707,2.518765 0.294023,0.347913 0.794631,0.917557 1.112462,1.265875 l 0.577875,0.633304 -0.05455,3.33347 c -0.102989,6.293414 -0.237039,8.649733 -0.517071,9.089012 -0.23185,0.363695 -0.528156,0.389616 -4.866303,0.425703 l -4.113393,0.03422 -0.0218,-4.795564 -0.0218,-4.795565 h -2.869315 -2.869316 l -0.05492,0.717329 c -0.0302,0.394531 -0.05869,2.524858 -0.06329,4.73406 l -0.0084,4.016732 -1.025949,0.05516 c -1.349516,0.07256 -6.8117997,0.05057 -7.4420646,-0.02996 z"
       id="path818"
       inkscape:connector-curvature="0"
       transform="matrix(0.26458333,0,0,0.26458333,-151.43855,17.705787)" />
  </g>
</svg>
