<?xml version="1.0" encoding="UTF-8" standalone="no"?>
<!-- Created with Inkscape (http://www.inkscape.org/) -->

<svg
   xmlns:dc="http://purl.org/dc/elements/1.1/"
   xmlns:cc="http://creativecommons.org/ns#"
   xmlns:rdf="http://www.w3.org/1999/02/22-rdf-syntax-ns#"
   xmlns:svg="http://www.w3.org/2000/svg"
   xmlns="http://www.w3.org/2000/svg"
   xmlns:sodipodi="http://sodipodi.sourceforge.net/DTD/sodipodi-0.dtd"
   xmlns:inkscape="http://www.inkscape.org/namespaces/inkscape"
   width="4"
   height="4"
   viewBox="0 0 1.0583334 1.0583333"
   version="1.1"
   id="svg834"
   inkscape:version="0.92.3 (2405546, 2018-03-11)"
   sodipodi:docname="lock-icon.svg"
   inkscape:export-filename="C:\xampp\htdocs\webcustsalesmart\resources\images\salesmart\lock-icon.png"
   inkscape:export-xdpi="1200"
   inkscape:export-ydpi="1200">
  <defs
     id="defs828" />
  <sodipodi:namedview
     id="base"
     pagecolor="#ffffff"
     bordercolor="#666666"
     borderopacity="1.0"
     inkscape:pageopacity="0.0"
     inkscape:pageshadow="2"
     inkscape:zoom="137.39121"
     inkscape:cx="0.22618025"
     inkscape:cy="1.9906662"
     inkscape:document-units="mm"
     inkscape:current-layer="layer1"
     showgrid="false"
     inkscape:window-width="1366"
     inkscape:window-height="716"
     inkscape:window-x="-8"
     inkscape:window-y="-8"
     inkscape:window-maximized="1"
     units="px" />
  <metadata
     id="metadata831">
    <rdf:RDF>
      <cc:Work
         rdf:about="">
        <dc:format>image/svg+xml</dc:format>
        <dc:type
           rdf:resource="http://purl.org/dc/dcmitype/StillImage" />
        <dc:title></dc:title>
      </cc:Work>
    </rdf:RDF>
  </metadata>
  <g
     inkscape:label="Layer 1"
     inkscape:groupmode="layer"
     id="layer1"
     transform="translate(-53.110709,-79.977037)">
    <path
       style="opacity:1;fill:#1b6fba;fill-opacity:1;stroke:none;stroke-width:0.00096288;stroke-miterlimit:4;stroke-dasharray:none;stroke-dashoffset:0;stroke-opacity:1"
       d="m 53.332451,81.026132 c -0.01662,-0.0064 -0.0322,-0.01666 -0.0464,-0.03055 -0.01624,-0.01589 -0.02588,-0.03126 -0.03342,-0.05325 l -0.0063,-0.01829 -7.83e-4,-0.233158 c -8.71e-4,-0.259476 -0.0016,-0.243446 0.01223,-0.271454 0.01894,-0.03837 0.05964,-0.06775 0.101158,-0.07303 0.0057,-7.3e-4 0.01179,-0.0017 0.01345,-0.0022 0.0027,-7.43e-4 0.003,-0.0089 0.0029,-0.07063 -9.6e-5,-0.08583 0.0017,-0.09677 0.02406,-0.143768 0.03682,-0.07752 0.09775,-0.124259 0.188558,-0.144662 0.01642,-0.0037 0.02235,-0.004 0.05777,-0.0032 0.03082,7.33e-4 0.04312,0.0018 0.05606,0.0049 0.04813,0.01156 0.08587,0.03175 0.12037,0.0644 0.03839,0.03634 0.06207,0.07726 0.0743,0.128418 0.0034,0.01431 0.0041,0.0254 0.0051,0.08818 0.0013,0.07827 8.6e-4,0.07542 0.0125,0.07549 0.0099,5.3e-5 0.02889,0.0059 0.04553,0.01404 0.01301,0.0064 0.01976,0.01138 0.0329,0.02444 0.01784,0.01774 0.02602,0.03038 0.03392,0.05243 l 0.005,0.01408 0.0014,0.112658 c 7.83e-4,0.06196 0.0015,0.166819 0.0016,0.233017 1.81e-4,0.133269 2e-6,0.135656 -0.012,0.160747 -0.0165,0.03449 -0.04489,0.05946 -0.08094,0.07119 l -0.01517,0.0049 -0.291026,-9.4e-5 -0.291027,-9.5e-5 z m 0.333627,-0.09717 c 0.01168,-0.0051 0.02126,-0.0145 0.02727,-0.02673 l 0.0054,-0.01094 9.63e-4,-0.07828 9.63e-4,-0.07828 0.01158,-0.0085 c 0.03172,-0.02334 0.05287,-0.06285 0.05287,-0.09875 0,-0.01569 -0.0051,-0.0355 -0.01366,-0.05296 -0.01502,-0.03067 -0.0466,-0.05565 -0.08152,-0.06449 -0.01525,-0.0039 -0.04811,-0.0038 -0.06335,1.47e-4 -0.03003,0.0078 -0.06055,0.03087 -0.07494,0.05676 -0.02061,0.03709 -0.02181,0.0755 -0.0035,0.11254 0.0096,0.01941 0.02312,0.0346 0.04212,0.0473 l 0.01485,0.0099 9.93e-4,0.0773 c 9.36e-4,0.07304 0.0012,0.07778 0.005,0.08597 0.01342,0.02909 0.04602,0.04169 0.075,0.029 z m 0.0738,-0.586755 0.006,-0.0012 v -0.062 c 0,-0.0511 -5.4e-4,-0.06384 -0.0031,-0.07246 -0.0096,-0.03259 -0.03655,-0.0603 -0.06986,-0.07176 -0.01545,-0.0053 -0.04398,-0.0065 -0.05994,-0.0025 -0.03659,0.0092 -0.06669,0.03641 -0.07683,0.06939 -0.0049,0.01588 -0.0067,0.05361 -0.005,0.102173 l 0.0014,0.03951 h 0.100627 c 0.05535,0 0.103335,-5.42e-4 0.106645,-0.0012 z"
       id="path1387"
       inkscape:connector-curvature="0" />
  </g>
</svg>
